<svg width="25" height="19" viewBox="0 0 25 19" fill="none" xmlns="http://www.w3.org/2000/svg">
<path d="M20.3642 1.88242C18.8342 1.19242 17.1942 0.682415 15.4792 0.392415C15.464 0.389483 15.4481 0.391373 15.434 0.397823C15.4198 0.404273 15.408 0.414964 15.4002 0.428416C15.1902 0.797415 14.9562 1.27842 14.7922 1.65842C12.9733 1.38665 11.1241 1.38665 9.30523 1.65842C9.12257 1.23728 8.91658 0.82664 8.68823 0.428416C8.68049 0.414798 8.66878 0.403865 8.65467 0.397076C8.64055 0.390286 8.6247 0.387963 8.60923 0.390415C6.89523 0.680415 5.25523 1.19042 3.72423 1.88142C3.71106 1.88694 3.6999 1.89636 3.69223 1.90842C0.580234 6.48342 -0.272766 10.9454 0.146234 15.3514C0.147399 15.3622 0.150749 15.3726 0.156078 15.3821C0.161408 15.3916 0.168606 15.3998 0.177234 15.4064C1.99363 16.7288 4.01957 17.7362 6.17023 18.3864C6.18523 18.391 6.20126 18.391 6.21625 18.3864C6.23123 18.3817 6.24447 18.3727 6.25423 18.3604C6.71703 17.7415 7.12713 17.0849 7.48023 16.3974C7.48513 16.388 7.48796 16.3777 7.48852 16.3671C7.48907 16.3565 7.48735 16.3459 7.48346 16.3361C7.47957 16.3262 7.47361 16.3173 7.46598 16.3099C7.45835 16.3026 7.44923 16.2969 7.43923 16.2934C6.79324 16.0501 6.16732 15.7566 5.56723 15.4154C5.55645 15.4093 5.54736 15.4005 5.54079 15.39C5.53422 15.3795 5.53036 15.3675 5.52957 15.3551C5.52877 15.3427 5.53107 15.3303 5.53625 15.319C5.54143 15.3077 5.54932 15.2979 5.55923 15.2904C5.68523 15.1974 5.81123 15.1004 5.93123 15.0034C5.94204 14.9947 5.95505 14.9891 5.96882 14.9874C5.98259 14.9856 5.99658 14.9877 6.00923 14.9934C9.93623 16.7574 14.1892 16.7574 18.0702 14.9934C18.0829 14.9874 18.0971 14.985 18.111 14.9866C18.125 14.9882 18.1382 14.9937 18.1492 15.0024C18.2692 15.1004 18.3942 15.1974 18.5212 15.2904C18.5312 15.2977 18.5393 15.3074 18.5446 15.3186C18.55 15.3298 18.5524 15.3421 18.5518 15.3545C18.5513 15.3669 18.5476 15.379 18.5412 15.3896C18.5348 15.4002 18.5259 15.4091 18.5152 15.4154C17.9172 15.7594 17.2952 16.0504 16.6422 16.2924C16.6322 16.2961 16.6231 16.3018 16.6154 16.3092C16.6078 16.3167 16.6018 16.3257 16.598 16.3356C16.5941 16.3456 16.5924 16.3562 16.5929 16.3669C16.5935 16.3775 16.5963 16.3879 16.6012 16.3974C16.9612 17.0844 17.3732 17.7384 17.8262 18.3594C17.8357 18.3722 17.8488 18.3817 17.8638 18.3867C17.8788 18.3917 17.8951 18.392 17.9102 18.3874C20.0646 17.7391 22.0938 16.7312 23.9122 15.4064C23.9211 15.4002 23.9286 15.3922 23.9341 15.3829C23.9396 15.3736 23.9431 15.3632 23.9442 15.3524C24.4442 10.2584 23.1062 5.83242 20.3952 1.91042C20.3886 1.89767 20.3776 1.88773 20.3642 1.88242ZM8.06723 12.6684C6.88523 12.6684 5.91023 11.5994 5.91023 10.2884C5.91023 8.97641 6.86623 7.90841 8.06723 7.90841C9.27723 7.90841 10.2432 8.98541 10.2242 10.2884C10.2242 11.6004 9.26823 12.6684 8.06723 12.6684ZM16.0422 12.6684C14.8592 12.6684 13.8852 11.5994 13.8852 10.2884C13.8852 8.97641 14.8402 7.90841 16.0422 7.90841C17.2522 7.90841 18.2182 8.98541 18.1992 10.2884C18.1992 11.6004 17.2532 12.6684 16.0422 12.6684Z" fill="#EAE7DB"/>
</svg>
