<svg width="17" height="17" viewBox="0 0 17 17" fill="none" xmlns="http://www.w3.org/2000/svg">
<path fill-rule="evenodd" clip-rule="evenodd" d="M8.56812 0.509277C6.40082 0.509277 6.12951 0.518321 5.27834 0.557156C4.42876 0.595991 3.84837 0.731114 3.34086 0.92848C2.80887 1.12851 2.32637 1.44237 1.92738 1.84881C1.52159 2.24734 1.20753 2.7295 1.00705 3.26176C0.810748 3.76927 0.675092 4.35019 0.636257 5.19977C0.597955 6.05041 0.588379 6.32119 0.588379 8.48902C0.588379 10.6568 0.597423 10.9276 0.636257 11.7788C0.675092 12.6284 0.810216 13.2088 1.00758 13.7163C1.20761 14.2483 1.52148 14.7308 1.92791 15.1298C2.32645 15.5355 2.80861 15.8496 3.34086 16.0501C3.84837 16.2469 4.42876 16.382 5.27834 16.4209C6.12951 16.4597 6.40082 16.4688 8.56812 16.4688C10.7354 16.4688 11.0067 16.4597 11.8579 16.4209C12.7075 16.382 13.2879 16.2469 13.7954 16.0496C14.3274 15.8495 14.8099 15.5357 15.2089 15.1292C15.6146 14.7307 15.9287 14.2485 16.1292 13.7163C16.326 13.2088 16.4611 12.6284 16.5 11.7788C16.5388 10.9276 16.5479 10.6563 16.5479 8.48902C16.5479 6.32172 16.5388 6.05041 16.5 5.19924C16.4611 4.34966 16.326 3.76927 16.1287 3.26176C15.9283 2.72927 15.6142 2.2469 15.2083 1.84828C14.8098 1.44249 14.3276 1.12843 13.7954 0.927948C13.2879 0.731646 12.7069 0.595991 11.8574 0.557156C11.0067 0.518853 10.7359 0.509277 8.56812 0.509277ZM8.56812 1.94723C10.6987 1.94723 10.9514 1.95521 11.793 1.99351C12.5708 2.02915 12.9931 2.15842 13.2746 2.26854C13.647 2.41271 13.9129 2.58614 14.1922 2.8649C14.4715 3.14419 14.6444 3.41018 14.7886 3.78257C14.8982 4.06399 15.028 4.48638 15.0636 5.26414C15.1019 6.10573 15.1099 6.35843 15.1099 8.48902C15.1099 10.6196 15.1019 10.8723 15.0636 11.7139C15.028 12.4917 14.8987 12.914 14.7886 13.1955C14.6609 13.5421 14.4571 13.8557 14.1922 14.1131C13.9348 14.3781 13.6212 14.5818 13.2746 14.7095C12.9931 14.8191 12.5708 14.9489 11.793 14.9845C10.9514 15.0228 10.6992 15.0308 8.56812 15.0308C6.437 15.0308 6.18484 15.0228 5.34324 14.9845C4.56548 14.9489 4.14309 14.8196 3.86167 14.7095C3.51506 14.5818 3.20148 14.378 2.944 14.1131C2.67916 13.8556 2.47539 13.5421 2.34765 13.1955C2.23806 12.914 2.10825 12.4917 2.07261 11.7139C2.03431 10.8723 2.02633 10.6196 2.02633 8.48902C2.02633 6.35843 2.03431 6.10573 2.07261 5.26414C2.10825 4.48638 2.23752 4.06399 2.34765 3.78257C2.49181 3.41018 2.66524 3.14419 2.944 2.8649C3.20145 2.59999 3.51503 2.39621 3.86167 2.26854C4.14309 2.15896 4.56548 2.02915 5.34324 1.99351C6.18484 1.95521 6.43753 1.94723 8.56812 1.94723Z" fill="white" fill-opacity="0.8"/>
<path fill-rule="evenodd" clip-rule="evenodd" d="M8.56838 11.1517C8.21873 11.1517 7.8725 11.0828 7.54946 10.949C7.22642 10.8152 6.9329 10.6191 6.68566 10.3718C6.43842 10.1246 6.24229 9.83107 6.10849 9.50803C5.97468 9.18499 5.90581 8.83876 5.90581 8.48911C5.90581 8.13945 5.97468 7.79322 6.10849 7.47018C6.24229 7.14715 6.43842 6.85363 6.68566 6.60638C6.9329 6.35914 7.22642 6.16302 7.54946 6.02921C7.8725 5.8954 8.21873 5.82653 8.56838 5.82653C9.27454 5.82653 9.95178 6.10706 10.4511 6.60638C10.9504 7.10571 11.231 7.78295 11.231 8.48911C11.231 9.19527 10.9504 9.8725 10.4511 10.3718C9.95178 10.8712 9.27454 11.1517 8.56838 11.1517ZM8.56838 4.38752C7.48057 4.38752 6.43732 4.81965 5.66812 5.58885C4.89893 6.35804 4.4668 7.4013 4.4668 8.48911C4.4668 9.57692 4.89893 10.6202 5.66812 11.3894C6.43732 12.1586 7.48057 12.5907 8.56838 12.5907C9.65619 12.5907 10.6994 12.1586 11.4686 11.3894C12.2378 10.6202 12.67 9.57692 12.67 8.48911C12.67 7.4013 12.2378 6.35804 11.4686 5.58885C10.6994 4.81965 9.65619 4.38752 8.56838 4.38752ZM13.8632 4.31304C13.8632 4.57018 13.7611 4.81679 13.5792 4.99861C13.3974 5.18044 13.1508 5.28258 12.8937 5.28258C12.6365 5.28258 12.3899 5.18044 12.2081 4.99861C12.0263 4.81679 11.9241 4.57018 11.9241 4.31304C11.9241 4.05591 12.0263 3.8093 12.2081 3.62748C12.3899 3.44565 12.6365 3.34351 12.8937 3.34351C13.1508 3.34351 13.3974 3.44565 13.5792 3.62748C13.7611 3.8093 13.8632 4.05591 13.8632 4.31304Z" fill="white" fill-opacity="0.8"/>
</svg>
