<svg width="260" height="48" viewBox="0 0 260 48" fill="none" xmlns="http://www.w3.org/2000/svg">
<path d="M0.5 6C0.5 2.68629 3.18629 0 6.5 0H253.5C256.814 0 259.5 2.68629 259.5 6V42C259.5 45.3137 256.814 48 253.5 48H6.49999C3.18629 48 0.5 45.3137 0.5 42V6Z" fill="url(#paint0_linear_117_397)"/>
<path d="M49.1143 19.3545H43.6738V22.6152H48.9561V24.54H43.6738V29.0752H49.1143V31H41.626V17.4297H49.1143V19.3545ZM52.7037 31V16.5068L62.6002 26.8604V17.4297H64.648V31.8262L54.7516 21.499V31H52.7037ZM72.5529 19.3545V31H70.5051V19.3545H67.385V17.4297H75.6643V19.3545H72.5529ZM85.8807 19.3545H80.4402V22.6152H85.7225V24.54H80.4402V29.0752H85.8807V31H78.3924V17.4297H85.8807V19.3545ZM94.0668 25.2168L98.268 31H95.7631L91.8871 25.4453H91.518V31H89.4701V17.4297H91.8695C93.6625 17.4297 94.9574 17.7666 95.7543 18.4404C96.6332 19.1904 97.0727 20.1807 97.0727 21.4111C97.0727 22.3721 96.7973 23.1982 96.2465 23.8896C95.6957 24.5811 94.9691 25.0234 94.0668 25.2168ZM91.518 23.6611H92.1684C94.1078 23.6611 95.0775 22.9199 95.0775 21.4375C95.0775 20.0488 94.1342 19.3545 92.2475 19.3545H91.518V23.6611ZM107.671 31V17.4297H109.71C110.618 17.4297 111.341 17.5 111.88 17.6406C112.425 17.7812 112.885 18.0186 113.26 18.3525C113.641 18.6982 113.943 19.1289 114.166 19.6445C114.394 20.166 114.508 20.6934 114.508 21.2266C114.508 22.1992 114.136 23.0225 113.392 23.6963C114.113 23.9424 114.681 24.373 115.097 24.9883C115.519 25.5977 115.73 26.3066 115.73 27.1152C115.73 28.1758 115.355 29.0723 114.605 29.8047C114.154 30.2559 113.647 30.5693 113.085 30.7451C112.469 30.915 111.699 31 110.773 31H107.671ZM109.718 23.2568H110.36C111.122 23.2568 111.678 23.0898 112.03 22.7559C112.387 22.416 112.566 21.918 112.566 21.2617C112.566 20.623 112.384 20.1396 112.021 19.8115C111.658 19.4775 111.13 19.3105 110.439 19.3105H109.718V23.2568ZM109.718 29.0752H110.984C111.91 29.0752 112.589 28.8936 113.023 28.5303C113.48 28.1377 113.709 27.6396 113.709 27.0361C113.709 26.4502 113.489 25.958 113.049 25.5596C112.622 25.167 111.857 24.9707 110.755 24.9707H109.718V29.0752ZM123.82 25.2168L128.021 31H125.516L121.64 25.4453H121.271V31H119.223V17.4297H121.622C123.415 17.4297 124.71 17.7666 125.507 18.4404C126.386 19.1904 126.825 20.1807 126.825 21.4111C126.825 22.3721 126.55 23.1982 125.999 23.8896C125.448 24.5811 124.722 25.0234 123.82 25.2168ZM121.271 23.6611H121.921C123.861 23.6611 124.83 22.9199 124.83 21.4375C124.83 20.0488 123.887 19.3545 122 19.3545H121.271V23.6611ZM138.94 27.7041H133.131L131.619 31H129.413L136.128 16.5771L142.605 31H140.364L138.94 27.7041ZM138.105 25.7793L136.093 21.165L133.983 25.7793H138.105ZM144.736 31L147.592 16.4102L152.25 26.957L157.076 16.4102L159.642 31H157.541L156.232 22.8086L152.215 31.624L148.313 22.7998L146.854 31H144.736ZM165.473 22.7383H171.326V17.4297H173.374V31H171.326V24.6631H165.473V31H163.425V17.4297H165.473V22.7383ZM185.498 27.7041H179.688L178.176 31H175.97L182.685 16.5771L189.163 31H186.921L185.498 27.7041ZM184.663 25.7793L182.65 21.165L180.541 25.7793H184.663ZM191.768 31V16.5068L201.664 26.8604V17.4297H203.712V31.8262L193.816 21.499V31H191.768ZM207.873 31V17.4297H210.721C212.086 17.4297 213.164 17.5645 213.955 17.834C214.804 18.0977 215.575 18.5459 216.266 19.1787C217.667 20.4561 218.367 22.1348 218.367 24.2148C218.367 26.3008 217.637 27.9883 216.179 29.2773C215.446 29.9219 214.679 30.3701 213.876 30.6221C213.126 30.874 212.062 31 210.685 31H207.873ZM209.921 29.0752H210.844C211.763 29.0752 212.528 28.9785 213.137 28.7852C213.747 28.5801 214.298 28.2549 214.79 27.8096C215.798 26.8896 216.302 25.6914 216.302 24.2148C216.302 22.7266 215.804 21.5195 214.807 20.5938C213.911 19.7676 212.59 19.3545 210.844 19.3545H209.921V29.0752Z" fill="white"/>
<defs>
<linearGradient id="paint0_linear_117_397" x1="130" y1="0" x2="130" y2="48" gradientUnits="userSpaceOnUse">
<stop offset="0.21875" stop-color="#D3AF2C"/>
<stop offset="0.890625" stop-color="#605F5E"/>
</linearGradient>
</defs>
</svg>
