<svg width="209" height="48" viewBox="0 0 209 48" fill="none" xmlns="http://www.w3.org/2000/svg">
<path d="M0.766602 6C0.766602 2.68629 3.45289 0 6.7666 0H202.767C206.08 0 208.767 2.68629 208.767 6V42C208.767 45.3137 206.08 48 202.767 48H6.7666C3.45289 48 0.766602 45.3137 0.766602 42V6Z" fill="url(#paint0_linear_61_871)"/>
<path d="M84.3809 19.3545H78.9404V22.6152H84.2227V24.54H78.9404V29.0752H84.3809V31H76.8926V17.4297H84.3809V19.3545ZM87.9703 31V16.5068L97.8668 26.8604V17.4297H99.9146V31.8262L90.0182 21.499V31H87.9703ZM107.82 19.3545V31H105.772V19.3545H102.652V17.4297H110.931V19.3545H107.82ZM121.147 19.3545H115.707V22.6152H120.989V24.54H115.707V29.0752H121.147V31H113.659V17.4297H121.147V19.3545ZM129.333 25.2168L133.535 31H131.03L127.154 25.4453H126.785V31H124.737V17.4297H127.136C128.929 17.4297 130.224 17.7666 131.021 18.4404C131.9 19.1904 132.339 20.1807 132.339 21.4111C132.339 22.3721 132.064 23.1982 131.513 23.8896C130.962 24.5811 130.236 25.0234 129.333 25.2168ZM126.785 23.6611H127.435C129.374 23.6611 130.344 22.9199 130.344 21.4375C130.344 20.0488 129.401 19.3545 127.514 19.3545H126.785V23.6611Z" fill="white"/>
<defs>
<linearGradient id="paint0_linear_61_871" x1="104.767" y1="0" x2="104.767" y2="48" gradientUnits="userSpaceOnUse">
<stop offset="0.21875" stop-color="#D6BB75"/>
<stop offset="0.791667" stop-color="#897031"/>
</linearGradient>
</defs>
</svg>
