<svg width="25" height="21" viewBox="0 0 25 21" fill="none" xmlns="http://www.w3.org/2000/svg">
<path d="M24.3479 3.14169C23.4618 3.52391 22.4976 3.79899 21.5044 3.90613C22.5355 3.29353 23.3077 2.32572 23.6761 1.18428C22.7085 1.75989 21.6485 2.16352 20.5431 2.37726C20.0811 1.88335 19.5223 1.48988 18.9016 1.22136C18.2808 0.95285 17.6115 0.815046 16.9352 0.81654C14.1988 0.81654 11.9982 3.03456 11.9982 5.7564C11.9982 6.13862 12.0445 6.52084 12.1198 6.88858C8.02257 6.6743 4.36834 4.71689 1.93895 1.71996C1.49629 2.47604 1.26432 3.33693 1.26718 4.21306C1.26718 5.92724 2.13875 7.43874 3.46782 8.32768C2.68458 8.29683 1.91967 8.08155 1.23533 7.69934V7.76015C1.23533 10.1606 2.93214 12.1498 5.19358 12.6074C4.76897 12.7176 4.33217 12.7741 3.89347 12.7753C3.57206 12.7753 3.26802 12.7434 2.96109 12.7C3.58654 14.6574 5.40786 16.0792 7.57665 16.1255C5.87984 17.4546 3.75448 18.2364 1.4467 18.2364C1.03263 18.2364 0.650418 18.2219 0.253723 18.1756C2.44278 19.5799 5.04012 20.3907 7.83725 20.3907C16.9178 20.3907 21.8866 12.868 21.8866 6.33842C21.8866 6.12414 21.8866 5.90987 21.8721 5.6956C22.8335 4.99197 23.6761 4.1204 24.3479 3.14169Z" fill="#EAE7DB"/>
</svg>
