<svg width="218" height="60" viewBox="0 0 218 60" fill="none" xmlns="http://www.w3.org/2000/svg">
<rect x="0.537109" width="217.147" height="60" rx="6" fill="url(#paint0_linear_311_2199)"/>
<path d="M65.333 31.2168L69.5342 37H67.0293L63.1533 31.4453H62.7842V37H60.7363V23.4297H63.1357C64.9287 23.4297 66.2236 23.7666 67.0205 24.4404C67.8994 25.1904 68.3389 26.1807 68.3389 27.4111C68.3389 28.3721 68.0635 29.1982 67.5127 29.8896C66.9619 30.5811 66.2354 31.0234 65.333 31.2168ZM62.7842 29.6611H63.4346C65.374 29.6611 66.3438 28.9199 66.3438 27.4375C66.3438 26.0488 65.4004 25.3545 63.5137 25.3545H62.7842V29.6611ZM79.6012 33.1855H73.4664C73.5191 33.8887 73.7477 34.4482 74.152 34.8643C74.5562 35.2744 75.0748 35.4795 75.7076 35.4795C76.1998 35.4795 76.607 35.3623 76.9293 35.1279C77.2457 34.8936 77.6061 34.46 78.0104 33.8271L79.6803 34.7588C79.4225 35.1982 79.15 35.5762 78.8629 35.8926C78.5758 36.2031 78.2682 36.4609 77.94 36.666C77.6119 36.8652 77.2574 37.0117 76.8766 37.1055C76.4957 37.1992 76.0826 37.2461 75.6373 37.2461C74.36 37.2461 73.3346 36.8359 72.5611 36.0156C71.7877 35.1895 71.401 34.0938 71.401 32.7285C71.401 31.375 71.776 30.2793 72.526 29.4414C73.2818 28.6152 74.2838 28.2021 75.5318 28.2021C76.7916 28.2021 77.7877 28.6035 78.5201 29.4062C79.2467 30.2031 79.61 31.3076 79.61 32.7197L79.6012 33.1855ZM77.5709 31.5684C77.2955 30.5137 76.6305 29.9863 75.5758 29.9863C75.3355 29.9863 75.11 30.0244 74.899 30.1006C74.6881 30.1709 74.4947 30.2764 74.3189 30.417C74.149 30.5518 74.0025 30.7158 73.8795 30.9092C73.7564 31.1025 73.6627 31.3223 73.5982 31.5684H77.5709ZM88.9826 28.4395H90.9689V37H88.9826V36.1035C88.1682 36.8652 87.2922 37.2461 86.3547 37.2461C85.1711 37.2461 84.1926 36.8184 83.4191 35.9629C82.6516 35.0898 82.2678 34 82.2678 32.6934C82.2678 31.4102 82.6516 30.3408 83.4191 29.4854C84.1867 28.6299 85.1477 28.2021 86.302 28.2021C87.298 28.2021 88.1916 28.6123 88.9826 29.4326V28.4395ZM84.2893 32.6934C84.2893 33.5137 84.509 34.1816 84.9484 34.6973C85.3996 35.2188 85.968 35.4795 86.6535 35.4795C87.3859 35.4795 87.9777 35.2275 88.4289 34.7236C88.8801 34.2021 89.1057 33.54 89.1057 32.7373C89.1057 31.9346 88.8801 31.2725 88.4289 30.751C87.9777 30.2412 87.3918 29.9863 86.6711 29.9863C85.9914 29.9863 85.423 30.2441 84.966 30.7598C84.5148 31.2812 84.2893 31.9258 84.2893 32.6934ZM100.676 22.1553H102.662V37H100.676V36.1035C99.8963 36.8652 99.0145 37.2461 98.0301 37.2461C96.8582 37.2461 95.8855 36.8184 95.1121 35.9629C94.3445 35.0898 93.9607 34 93.9607 32.6934C93.9607 31.416 94.3445 30.3496 95.1121 29.4941C95.8738 28.6328 96.8318 28.2021 97.9861 28.2021C98.9881 28.2021 99.8846 28.6123 100.676 29.4326V22.1553ZM95.9822 32.6934C95.9822 33.5137 96.202 34.1816 96.6414 34.6973C97.0926 35.2188 97.6609 35.4795 98.3465 35.4795C99.0789 35.4795 99.6707 35.2275 100.122 34.7236C100.573 34.2021 100.799 33.54 100.799 32.7373C100.799 31.9346 100.573 31.2725 100.122 30.751C99.6707 30.2412 99.0848 29.9863 98.3641 29.9863C97.6844 29.9863 97.116 30.2441 96.659 30.7598C96.2078 31.2812 95.9822 31.9258 95.9822 32.6934ZM112.416 37L115.272 22.4102L119.931 32.957L124.756 22.4102L127.322 37H125.222L123.912 28.8086L119.896 37.624L115.993 28.7998L114.534 37H112.416ZM130.323 32.6582C130.323 31.4219 130.765 30.3701 131.65 29.5029C132.535 28.6357 133.613 28.2021 134.884 28.2021C136.162 28.2021 137.246 28.6387 138.136 29.5117C139.015 30.3848 139.455 31.457 139.455 32.7285C139.455 34.0117 139.012 35.0869 138.128 35.9541C137.237 36.8154 136.144 37.2461 134.849 37.2461C133.566 37.2461 132.491 36.8066 131.624 35.9277C130.756 35.0605 130.323 33.9707 130.323 32.6582ZM132.344 32.6934C132.344 33.5488 132.573 34.2256 133.03 34.7236C133.499 35.2275 134.117 35.4795 134.884 35.4795C135.658 35.4795 136.276 35.2305 136.739 34.7324C137.202 34.2344 137.433 33.5693 137.433 32.7373C137.433 31.9053 137.202 31.2402 136.739 30.7422C136.27 30.2383 135.652 29.9863 134.884 29.9863C134.129 29.9863 133.516 30.2383 133.047 30.7422C132.579 31.2461 132.344 31.8965 132.344 32.6934ZM142.455 28.4395H144.433V29.2041C144.796 28.8232 145.118 28.5625 145.4 28.4219C145.687 28.2754 146.027 28.2021 146.419 28.2021C146.941 28.2021 147.486 28.3721 148.054 28.7119L147.149 30.5225C146.774 30.2529 146.407 30.1182 146.05 30.1182C144.972 30.1182 144.433 30.9326 144.433 32.5615V37H142.455V28.4395ZM157.761 33.1855H151.626C151.679 33.8887 151.907 34.4482 152.311 34.8643C152.716 35.2744 153.234 35.4795 153.867 35.4795C154.359 35.4795 154.766 35.3623 155.089 35.1279C155.405 34.8936 155.765 34.46 156.17 33.8271L157.84 34.7588C157.582 35.1982 157.309 35.5762 157.022 35.8926C156.735 36.2031 156.428 36.4609 156.099 36.666C155.771 36.8652 155.417 37.0117 155.036 37.1055C154.655 37.1992 154.242 37.2461 153.797 37.2461C152.519 37.2461 151.494 36.8359 150.721 36.0156C149.947 35.1895 149.56 34.0938 149.56 32.7285C149.56 31.375 149.935 30.2793 150.685 29.4414C151.441 28.6152 152.443 28.2021 153.691 28.2021C154.951 28.2021 155.947 28.6035 156.679 29.4062C157.406 30.2031 157.769 31.3076 157.769 32.7197L157.761 33.1855ZM155.73 31.5684C155.455 30.5137 154.79 29.9863 153.735 29.9863C153.495 29.9863 153.269 30.0244 153.058 30.1006C152.847 30.1709 152.654 30.2764 152.478 30.417C152.308 30.5518 152.162 30.7158 152.039 30.9092C151.916 31.1025 151.822 31.3223 151.758 31.5684H155.73Z" fill="white"/>
<defs>
<linearGradient id="paint0_linear_311_2199" x1="109.111" y1="0" x2="109.111" y2="60" gradientUnits="userSpaceOnUse">
<stop offset="0.21875" stop-color="#D6BB75"/>
<stop offset="0.791667" stop-color="#897031"/>
</linearGradient>
</defs>
</svg>
