<svg width="218" height="60" viewBox="0 0 218 60" fill="none" xmlns="http://www.w3.org/2000/svg">
<rect x="0.750977" width="217.147" height="60" rx="6" fill="url(#paint0_linear_323_5113)"/>
<path d="M71.5469 31.2168L75.748 37H73.2432L69.3672 31.4453H68.998V37H66.9502V23.4297H69.3496C71.1426 23.4297 72.4375 23.7666 73.2344 24.4404C74.1133 25.1904 74.5527 26.1807 74.5527 27.4111C74.5527 28.3721 74.2773 29.1982 73.7266 29.8896C73.1758 30.5811 72.4492 31.0234 71.5469 31.2168ZM68.998 29.6611H69.6484C71.5879 29.6611 72.5576 28.9199 72.5576 27.4375C72.5576 26.0488 71.6143 25.3545 69.7275 25.3545H68.998V29.6611ZM85.815 33.1855H79.6803C79.733 33.8887 79.9615 34.4482 80.3658 34.8643C80.7701 35.2744 81.2887 35.4795 81.9215 35.4795C82.4137 35.4795 82.8209 35.3623 83.1432 35.1279C83.4596 34.8936 83.8199 34.46 84.2242 33.8271L85.8941 34.7588C85.6363 35.1982 85.3639 35.5762 85.0768 35.8926C84.7896 36.2031 84.482 36.4609 84.1539 36.666C83.8258 36.8652 83.4713 37.0117 83.0904 37.1055C82.7096 37.1992 82.2965 37.2461 81.8512 37.2461C80.5738 37.2461 79.5484 36.8359 78.775 36.0156C78.0016 35.1895 77.6148 34.0938 77.6148 32.7285C77.6148 31.375 77.9898 30.2793 78.7398 29.4414C79.4957 28.6152 80.4977 28.2021 81.7457 28.2021C83.0055 28.2021 84.0016 28.6035 84.734 29.4062C85.4605 30.2031 85.8238 31.3076 85.8238 32.7197L85.815 33.1855ZM83.7848 31.5684C83.5094 30.5137 82.8443 29.9863 81.7896 29.9863C81.5494 29.9863 81.3238 30.0244 81.1129 30.1006C80.902 30.1709 80.7086 30.2764 80.5328 30.417C80.3629 30.5518 80.2164 30.7158 80.0934 30.9092C79.9703 31.1025 79.8766 31.3223 79.8121 31.5684H83.7848ZM95.1965 28.4395H97.1828V37H95.1965V36.1035C94.382 36.8652 93.5061 37.2461 92.5686 37.2461C91.385 37.2461 90.4064 36.8184 89.633 35.9629C88.8654 35.0898 88.4816 34 88.4816 32.6934C88.4816 31.4102 88.8654 30.3408 89.633 29.4854C90.4006 28.6299 91.3615 28.2021 92.5158 28.2021C93.5119 28.2021 94.4055 28.6123 95.1965 29.4326V28.4395ZM90.5031 32.6934C90.5031 33.5137 90.7229 34.1816 91.1623 34.6973C91.6135 35.2188 92.1818 35.4795 92.8674 35.4795C93.5998 35.4795 94.1916 35.2275 94.6428 34.7236C95.0939 34.2021 95.3195 33.54 95.3195 32.7373C95.3195 31.9346 95.0939 31.2725 94.6428 30.751C94.1916 30.2412 93.6057 29.9863 92.885 29.9863C92.2053 29.9863 91.6369 30.2441 91.1799 30.7598C90.7287 31.2812 90.5031 31.9258 90.5031 32.6934ZM106.889 22.1553H108.876V37H106.889V36.1035C106.11 36.8652 105.228 37.2461 104.244 37.2461C103.072 37.2461 102.099 36.8184 101.326 35.9629C100.558 35.0898 100.175 34 100.175 32.6934C100.175 31.416 100.558 30.3496 101.326 29.4941C102.088 28.6328 103.046 28.2021 104.2 28.2021C105.202 28.2021 106.098 28.6123 106.889 29.4326V22.1553ZM102.196 32.6934C102.196 33.5137 102.416 34.1816 102.855 34.6973C103.306 35.2188 103.875 35.4795 104.56 35.4795C105.293 35.4795 105.885 35.2275 106.336 34.7236C106.787 34.2021 107.013 33.54 107.013 32.7373C107.013 31.9346 106.787 31.2725 106.336 30.751C105.885 30.2412 105.299 29.9863 104.578 29.9863C103.898 29.9863 103.33 30.2441 102.873 30.7598C102.422 31.2812 102.196 31.9258 102.196 32.6934ZM121.152 23.4297V35.0752H125.143V37H119.104V23.4297H121.152ZM135.403 33.1855H129.268C129.321 33.8887 129.549 34.4482 129.954 34.8643C130.358 35.2744 130.877 35.4795 131.509 35.4795C132.002 35.4795 132.409 35.3623 132.731 35.1279C133.047 34.8936 133.408 34.46 133.812 33.8271L135.482 34.7588C135.224 35.1982 134.952 35.5762 134.665 35.8926C134.378 36.2031 134.07 36.4609 133.742 36.666C133.414 36.8652 133.059 37.0117 132.678 37.1055C132.297 37.1992 131.884 37.2461 131.439 37.2461C130.162 37.2461 129.136 36.8359 128.363 36.0156C127.589 35.1895 127.203 34.0938 127.203 32.7285C127.203 31.375 127.578 30.2793 128.328 29.4414C129.084 28.6152 130.086 28.2021 131.334 28.2021C132.593 28.2021 133.589 28.6035 134.322 29.4062C135.048 30.2031 135.412 31.3076 135.412 32.7197L135.403 33.1855ZM133.373 31.5684C133.097 30.5137 132.432 29.9863 131.378 29.9863C131.137 29.9863 130.912 30.0244 130.701 30.1006C130.49 30.1709 130.296 30.2764 130.121 30.417C129.951 30.5518 129.804 30.7158 129.681 30.9092C129.558 31.1025 129.464 31.3223 129.4 31.5684H133.373ZM143.448 29.8984L141.814 30.7686C141.556 30.2412 141.237 29.9775 140.856 29.9775C140.674 29.9775 140.519 30.0391 140.39 30.1621C140.261 30.2793 140.196 30.4316 140.196 30.6191C140.196 30.9473 140.577 31.2725 141.339 31.5947C142.388 32.0459 143.094 32.4619 143.457 32.8428C143.821 33.2236 144.002 33.7363 144.002 34.3809C144.002 35.207 143.697 35.8984 143.088 36.4551C142.496 36.9824 141.781 37.2461 140.944 37.2461C139.508 37.2461 138.491 36.5459 137.894 35.1455L139.581 34.3633C139.816 34.7734 139.994 35.0342 140.117 35.1455C140.358 35.3682 140.645 35.4795 140.979 35.4795C141.647 35.4795 141.981 35.1748 141.981 34.5654C141.981 34.2139 141.723 33.8857 141.207 33.5811C141.008 33.4814 140.809 33.3848 140.61 33.291C140.41 33.1973 140.208 33.1006 140.003 33.001C139.429 32.7197 139.025 32.4385 138.79 32.1572C138.491 31.7998 138.342 31.3398 138.342 30.7773C138.342 30.0332 138.597 29.418 139.107 28.9316C139.628 28.4453 140.261 28.2021 141.005 28.2021C142.101 28.2021 142.915 28.7676 143.448 29.8984ZM151.661 29.8984L150.026 30.7686C149.768 30.2412 149.449 29.9775 149.068 29.9775C148.887 29.9775 148.731 30.0391 148.602 30.1621C148.473 30.2793 148.409 30.4316 148.409 30.6191C148.409 30.9473 148.79 31.2725 149.552 31.5947C150.6 32.0459 151.306 32.4619 151.67 32.8428C152.033 33.2236 152.215 33.7363 152.215 34.3809C152.215 35.207 151.91 35.8984 151.301 36.4551C150.709 36.9824 149.994 37.2461 149.156 37.2461C147.721 37.2461 146.704 36.5459 146.106 35.1455L147.794 34.3633C148.028 34.7734 148.207 35.0342 148.33 35.1455C148.57 35.3682 148.857 35.4795 149.191 35.4795C149.859 35.4795 150.193 35.1748 150.193 34.5654C150.193 34.2139 149.935 33.8857 149.42 33.5811C149.221 33.4814 149.021 33.3848 148.822 33.291C148.623 33.1973 148.421 33.1006 148.216 33.001C147.641 32.7197 147.237 32.4385 147.003 32.1572C146.704 31.7998 146.554 31.3398 146.554 30.7773C146.554 30.0332 146.809 29.418 147.319 28.9316C147.841 28.4453 148.473 28.2021 149.218 28.2021C150.313 28.2021 151.128 28.7676 151.661 29.8984Z" fill="white"/>
<defs>
<linearGradient id="paint0_linear_323_5113" x1="109.325" y1="0" x2="109.325" y2="60" gradientUnits="userSpaceOnUse">
<stop offset="0.21875" stop-color="#D6BB75"/>
<stop offset="0.791667" stop-color="#897031"/>
</linearGradient>
</defs>
</svg>
