<svg width="134" height="22" viewBox="0 0 134 22" fill="none" xmlns="http://www.w3.org/2000/svg">
<g filter="url(#filter0_d_223_39575)">
<path d="M59.9633 8.58821L59.9298 2.3644H63.9678L63.8326 18.3583H59.8923V13.7451V13.3334L59.4806 13.3385L56.3966 13.3767L55.995 13.3816V13.7833V18.3583H52.0578V2.3644H55.9261L55.9593 8.59256L55.9614 8.99703H56.3659H59.5567H59.9655L59.9633 8.58821Z" stroke="url(#paint0_linear_223_39575)" stroke-width="0.813276" stroke-miterlimit="10"/>
<path d="M59.9633 8.58821L59.9298 2.3644H63.9678L63.8326 18.3583H59.8923V13.7451V13.3334L59.4806 13.3385L56.3966 13.3767L55.995 13.3816V13.7833V18.3583H52.0578V2.3644H55.9261L55.9593 8.59256L55.9614 8.99703H56.3659H59.5567H59.9655L59.9633 8.58821Z" stroke="url(#paint1_linear_223_39575)" stroke-width="0.813276" stroke-miterlimit="10"/>
<path d="M59.9633 8.58821L59.9298 2.3644H63.9678L63.8326 18.3583H59.8923V13.7451V13.3334L59.4806 13.3385L56.3966 13.3767L55.995 13.3816V13.7833V18.3583H52.0578V2.3644H55.9261L55.9593 8.59256L55.9614 8.99703H56.3659H59.5567H59.9655L59.9633 8.58821Z" stroke="white" stroke-opacity="0.54" stroke-width="0.813276" stroke-miterlimit="10"/>
<path d="M75.2891 10.9232L82.4658 1.59855V18.3583H78.4933V14.5034V13.2361L77.7559 14.2668L75.0272 18.081L72.1353 14.2944L71.4055 13.3387V14.5412V18.3583H67.4683V1.5986L74.6446 10.9231L74.9668 11.3419L75.2891 10.9232Z" stroke="url(#paint2_linear_223_39575)" stroke-width="0.813276" stroke-miterlimit="10"/>
<path d="M75.2891 10.9232L82.4658 1.59855V18.3583H78.4933V14.5034V13.2361L77.7559 14.2668L75.0272 18.081L72.1353 14.2944L71.4055 13.3387V14.5412V18.3583H67.4683V1.5986L74.6446 10.9231L74.9668 11.3419L75.2891 10.9232Z" stroke="url(#paint3_linear_223_39575)" stroke-width="0.813276" stroke-miterlimit="10"/>
<path d="M75.2891 10.9232L82.4658 1.59855V18.3583H78.4933V14.5034V13.2361L77.7559 14.2668L75.0272 18.081L72.1353 14.2944L71.4055 13.3387V14.5412V18.3583H67.4683V1.5986L74.6446 10.9231L74.9668 11.3419L75.2891 10.9232Z" stroke="white" stroke-opacity="0.54" stroke-width="0.813276" stroke-miterlimit="10"/>
<path d="M112.754 8.65447L112.718 2.36272H116.574V18.8836L108.675 11.4473L107.99 10.8021V11.7434V18.3998H104.131V1.81302L112.075 8.95909L112.759 9.57425L112.754 8.65447Z" stroke="url(#paint4_linear_223_39575)" stroke-width="0.813276" stroke-miterlimit="10"/>
<path d="M112.754 8.65447L112.718 2.36272H116.574V18.8836L108.675 11.4473L107.99 10.8021V11.7434V18.3998H104.131V1.81302L112.075 8.95909L112.759 9.57425L112.754 8.65447Z" stroke="url(#paint5_linear_223_39575)" stroke-width="0.813276" stroke-miterlimit="10"/>
<path d="M112.754 8.65447L112.718 2.36272H116.574V18.8836L108.675 11.4473L107.99 10.8021V11.7434V18.3998H104.131V1.81302L112.075 8.95909L112.759 9.57425L112.754 8.65447Z" stroke="white" stroke-opacity="0.54" stroke-width="0.813276" stroke-miterlimit="10"/>
<path d="M132.729 9.90783L132.729 9.90805L132.729 9.90824L132.729 9.90851L132.729 9.90862L132.729 9.91703L132.729 9.92623C132.765 13.7964 131.062 15.851 129.378 16.9558C128.526 17.5145 127.669 17.8359 127.024 18.0172C126.702 18.1077 126.434 18.1627 126.249 18.195C126.157 18.2111 126.085 18.2215 126.038 18.2277C126.016 18.2306 125.999 18.2326 125.988 18.2338H120.196V2.37222L125.977 2.39086C126.687 2.47016 127.813 2.70024 129.001 3.43036C129.718 3.87112 131.056 4.87808 131.949 6.72843C132.366 7.5917 132.561 8.39417 132.652 8.97947C132.697 9.27179 132.716 9.50876 132.724 9.67046C132.728 9.75127 132.729 9.81315 132.729 9.85358C132.729 9.87379 132.729 9.88863 132.729 9.89778L132.729 9.90719L132.729 9.90783Z" stroke="url(#paint6_linear_223_39575)" stroke-width="0.813276" stroke-miterlimit="10"/>
<path d="M132.729 9.90783L132.729 9.90805L132.729 9.90824L132.729 9.90851L132.729 9.90862L132.729 9.91703L132.729 9.92623C132.765 13.7964 131.062 15.851 129.378 16.9558C128.526 17.5145 127.669 17.8359 127.024 18.0172C126.702 18.1077 126.434 18.1627 126.249 18.195C126.157 18.2111 126.085 18.2215 126.038 18.2277C126.016 18.2306 125.999 18.2326 125.988 18.2338H120.196V2.37222L125.977 2.39086C126.687 2.47016 127.813 2.70024 129.001 3.43036C129.718 3.87112 131.056 4.87808 131.949 6.72843C132.366 7.5917 132.561 8.39417 132.652 8.97947C132.697 9.27179 132.716 9.50876 132.724 9.67046C132.728 9.75127 132.729 9.81315 132.729 9.85358C132.729 9.87379 132.729 9.88863 132.729 9.89778L132.729 9.90719L132.729 9.90783Z" stroke="url(#paint7_linear_223_39575)" stroke-width="0.813276" stroke-miterlimit="10"/>
<path d="M132.729 9.90783L132.729 9.90805L132.729 9.90824L132.729 9.90851L132.729 9.90862L132.729 9.91703L132.729 9.92623C132.765 13.7964 131.062 15.851 129.378 16.9558C128.526 17.5145 127.669 17.8359 127.024 18.0172C126.702 18.1077 126.434 18.1627 126.249 18.195C126.157 18.2111 126.085 18.2215 126.038 18.2277C126.016 18.2306 125.999 18.2326 125.988 18.2338H120.196V2.37222L125.977 2.39086C126.687 2.47016 127.813 2.70024 129.001 3.43036C129.718 3.87112 131.056 4.87808 131.949 6.72843C132.366 7.5917 132.561 8.39417 132.652 8.97947C132.697 9.27179 132.716 9.50876 132.724 9.67046C132.728 9.75127 132.729 9.81315 132.729 9.85358C132.729 9.87379 132.729 9.88863 132.729 9.89778L132.729 9.90719L132.729 9.90783Z" stroke="white" stroke-opacity="0.54" stroke-width="0.813276" stroke-miterlimit="10"/>
<path d="M123.343 5.71023H125.377L125.379 5.71031C125.385 5.71053 125.394 5.71094 125.407 5.71167C125.432 5.71314 125.472 5.7159 125.524 5.72099C125.627 5.73116 125.779 5.75056 125.963 5.78723C126.333 5.86082 126.827 6.00245 127.331 6.27294C128.321 6.8042 129.377 7.84568 129.572 9.95975C129.765 12.0484 128.809 13.2304 127.803 13.9126C127.291 14.2593 126.763 14.4771 126.361 14.6081C126.16 14.6734 125.993 14.7164 125.878 14.7428C125.82 14.756 125.776 14.765 125.746 14.7706C125.742 14.7714 125.739 14.7721 125.735 14.7727H123.343V5.71023Z" stroke="url(#paint8_linear_223_39575)" stroke-width="0.813276" stroke-miterlimit="10"/>
<path d="M123.343 5.71023H125.377L125.379 5.71031C125.385 5.71053 125.394 5.71094 125.407 5.71167C125.432 5.71314 125.472 5.7159 125.524 5.72099C125.627 5.73116 125.779 5.75056 125.963 5.78723C126.333 5.86082 126.827 6.00245 127.331 6.27294C128.321 6.8042 129.377 7.84568 129.572 9.95975C129.765 12.0484 128.809 13.2304 127.803 13.9126C127.291 14.2593 126.763 14.4771 126.361 14.6081C126.16 14.6734 125.993 14.7164 125.878 14.7428C125.82 14.756 125.776 14.765 125.746 14.7706C125.742 14.7714 125.739 14.7721 125.735 14.7727H123.343V5.71023Z" stroke="url(#paint9_linear_223_39575)" stroke-width="0.813276" stroke-miterlimit="10"/>
<path d="M123.343 5.71023H125.377L125.379 5.71031C125.385 5.71053 125.394 5.71094 125.407 5.71167C125.432 5.71314 125.472 5.7159 125.524 5.72099C125.627 5.73116 125.779 5.75056 125.963 5.78723C126.333 5.86082 126.827 6.00245 127.331 6.27294C128.321 6.8042 129.377 7.84568 129.572 9.95975C129.765 12.0484 128.809 13.2304 127.803 13.9126C127.291 14.2593 126.763 14.4771 126.361 14.6081C126.16 14.6734 125.993 14.7164 125.878 14.7428C125.82 14.756 125.776 14.765 125.746 14.7706C125.742 14.7714 125.739 14.7721 125.735 14.7727H123.343V5.71023Z" stroke="white" stroke-opacity="0.54" stroke-width="0.813276" stroke-miterlimit="10"/>
<path d="M124.895 13.4229V7.418C124.971 7.42065 125.057 7.42509 125.151 7.43222C125.544 7.46213 126.055 7.53831 126.553 7.7189C127.052 7.89962 127.515 8.17675 127.841 8.59497C128.161 9.0056 128.376 9.58607 128.327 10.4303C128.277 11.2836 128.013 11.8745 127.666 12.2915C127.315 12.7126 126.859 12.982 126.39 13.1527C125.92 13.3237 125.451 13.3906 125.094 13.4138C125.022 13.4184 124.955 13.4213 124.895 13.4229Z" stroke="url(#paint10_linear_223_39575)" stroke-width="0.813276" stroke-miterlimit="10"/>
<path d="M124.895 13.4229V7.418C124.971 7.42065 125.057 7.42509 125.151 7.43222C125.544 7.46213 126.055 7.53831 126.553 7.7189C127.052 7.89962 127.515 8.17675 127.841 8.59497C128.161 9.0056 128.376 9.58607 128.327 10.4303C128.277 11.2836 128.013 11.8745 127.666 12.2915C127.315 12.7126 126.859 12.982 126.39 13.1527C125.92 13.3237 125.451 13.3906 125.094 13.4138C125.022 13.4184 124.955 13.4213 124.895 13.4229Z" stroke="url(#paint11_linear_223_39575)" stroke-width="0.813276" stroke-miterlimit="10"/>
<path d="M124.895 13.4229V7.418C124.971 7.42065 125.057 7.42509 125.151 7.43222C125.544 7.46213 126.055 7.53831 126.553 7.7189C127.052 7.89962 127.515 8.17675 127.841 8.59497C128.161 9.0056 128.376 9.58607 128.327 10.4303C128.277 11.2836 128.013 11.8745 127.666 12.2915C127.315 12.7126 126.859 12.982 126.39 13.1527C125.92 13.3237 125.451 13.3906 125.094 13.4138C125.022 13.4184 124.955 13.4213 124.895 13.4229Z" stroke="white" stroke-opacity="0.54" stroke-width="0.813276" stroke-miterlimit="10"/>
<path d="M4.98986 18.207L4.98986 18.207H4.98379H1.69179V2.25964L10.1056 2.31699C10.4899 2.37155 12.1426 2.66554 13.2609 4.26933C13.4199 4.49756 14.2536 5.73851 14.1887 7.40516C14.1772 7.70032 14.1393 8.46564 13.7363 9.30889L13.7363 9.30899C13.5796 9.63701 13.4095 9.88903 13.2768 10.064L13.0854 10.3162L13.2829 10.5635C13.5168 10.8564 13.8594 11.3675 14.0485 12.0918L14.0485 12.0918C14.1441 12.4582 14.1774 12.7896 14.1843 13.0582C14.187 13.4043 14.159 15.7058 12.4625 17.1957L12.7308 17.5013L12.4625 17.1957C11.4476 18.0871 10.3418 18.2443 9.86976 18.2795C9.06374 18.2674 8.25962 18.2555 7.45558 18.2436C6.63424 18.2315 5.81299 18.2193 4.98986 18.207Z" stroke="url(#paint12_linear_223_39575)" stroke-width="0.813276" stroke-miterlimit="10"/>
<path d="M4.98986 18.207L4.98986 18.207H4.98379H1.69179V2.25964L10.1056 2.31699C10.4899 2.37155 12.1426 2.66554 13.2609 4.26933C13.4199 4.49756 14.2536 5.73851 14.1887 7.40516C14.1772 7.70032 14.1393 8.46564 13.7363 9.30889L13.7363 9.30899C13.5796 9.63701 13.4095 9.88903 13.2768 10.064L13.0854 10.3162L13.2829 10.5635C13.5168 10.8564 13.8594 11.3675 14.0485 12.0918L14.0485 12.0918C14.1441 12.4582 14.1774 12.7896 14.1843 13.0582C14.187 13.4043 14.159 15.7058 12.4625 17.1957L12.7308 17.5013L12.4625 17.1957C11.4476 18.0871 10.3418 18.2443 9.86976 18.2795C9.06374 18.2674 8.25962 18.2555 7.45558 18.2436C6.63424 18.2315 5.81299 18.2193 4.98986 18.207Z" stroke="url(#paint13_linear_223_39575)" stroke-width="0.813276" stroke-miterlimit="10"/>
<path d="M4.98986 18.207L4.98986 18.207H4.98379H1.69179V2.25964L10.1056 2.31699C10.4899 2.37155 12.1426 2.66554 13.2609 4.26933C13.4199 4.49756 14.2536 5.73851 14.1887 7.40516C14.1772 7.70032 14.1393 8.46564 13.7363 9.30889L13.7363 9.30899C13.5796 9.63701 13.4095 9.88903 13.2768 10.064L13.0854 10.3162L13.2829 10.5635C13.5168 10.8564 13.8594 11.3675 14.0485 12.0918L14.0485 12.0918C14.1441 12.4582 14.1774 12.7896 14.1843 13.0582C14.187 13.4043 14.159 15.7058 12.4625 17.1957L12.7308 17.5013L12.4625 17.1957C11.4476 18.0871 10.3418 18.2443 9.86976 18.2795C9.06374 18.2674 8.25962 18.2555 7.45558 18.2436C6.63424 18.2315 5.81299 18.2193 4.98986 18.207Z" stroke="white" stroke-opacity="0.54" stroke-width="0.813276" stroke-miterlimit="10"/>
<path d="M4.82143 9.04577V5.65755H9.90823C10.3943 5.80401 10.7025 6.12508 10.8708 6.53354C11.0496 6.96748 11.0717 7.5093 10.9397 8.03326C10.8306 8.46618 10.5238 8.71762 10.2025 8.86908C10.0424 8.94453 9.88786 8.99009 9.77285 9.01656C9.71587 9.02968 9.66999 9.03778 9.63979 9.04246C9.63076 9.04386 9.62318 9.04495 9.61717 9.04577H4.82143Z" stroke="url(#paint14_linear_223_39575)" stroke-width="0.813276" stroke-miterlimit="10"/>
<path d="M4.82143 9.04577V5.65755H9.90823C10.3943 5.80401 10.7025 6.12508 10.8708 6.53354C11.0496 6.96748 11.0717 7.5093 10.9397 8.03326C10.8306 8.46618 10.5238 8.71762 10.2025 8.86908C10.0424 8.94453 9.88786 8.99009 9.77285 9.01656C9.71587 9.02968 9.66999 9.03778 9.63979 9.04246C9.63076 9.04386 9.62318 9.04495 9.61717 9.04577H4.82143Z" stroke="url(#paint15_linear_223_39575)" stroke-width="0.813276" stroke-miterlimit="10"/>
<path d="M4.82143 9.04577V5.65755H9.90823C10.3943 5.80401 10.7025 6.12508 10.8708 6.53354C11.0496 6.96748 11.0717 7.5093 10.9397 8.03326C10.8306 8.46618 10.5238 8.71762 10.2025 8.86908C10.0424 8.94453 9.88786 8.99009 9.77285 9.01656C9.71587 9.02968 9.66999 9.03778 9.63979 9.04246C9.63076 9.04386 9.62318 9.04495 9.61717 9.04577H4.82143Z" stroke="white" stroke-opacity="0.54" stroke-width="0.813276" stroke-miterlimit="10"/>
<path d="M4.82143 14.8629V11.5825H9.90973C10.3991 11.7257 10.7058 12.0394 10.8723 12.433C11.0493 12.8516 11.0714 13.3749 10.9403 13.8818C10.833 14.2967 10.5299 14.5413 10.2061 14.69C10.0456 14.7637 9.89054 14.8083 9.77504 14.8342C9.71782 14.847 9.67172 14.8549 9.64131 14.8595C9.63189 14.861 9.62402 14.8621 9.61784 14.8629H4.82143Z" stroke="url(#paint16_linear_223_39575)" stroke-width="0.813276" stroke-miterlimit="10"/>
<path d="M4.82143 14.8629V11.5825H9.90973C10.3991 11.7257 10.7058 12.0394 10.8723 12.433C11.0493 12.8516 11.0714 13.3749 10.9403 13.8818C10.833 14.2967 10.5299 14.5413 10.2061 14.69C10.0456 14.7637 9.89054 14.8083 9.77504 14.8342C9.71782 14.847 9.67172 14.8549 9.64131 14.8595C9.63189 14.861 9.62402 14.8621 9.61784 14.8629H4.82143Z" stroke="url(#paint17_linear_223_39575)" stroke-width="0.813276" stroke-miterlimit="10"/>
<path d="M4.82143 14.8629V11.5825H9.90973C10.3991 11.7257 10.7058 12.0394 10.8723 12.433C11.0493 12.8516 11.0714 13.3749 10.9403 13.8818C10.833 14.2967 10.5299 14.5413 10.2061 14.69C10.0456 14.7637 9.89054 14.8083 9.77504 14.8342C9.71782 14.847 9.67172 14.8549 9.64131 14.8595C9.63189 14.861 9.62402 14.8621 9.61784 14.8629H4.82143Z" stroke="white" stroke-opacity="0.54" stroke-width="0.813276" stroke-miterlimit="10"/>
<path d="M9.49847 7.35417L9.47828 7.35188L9.50421 7.34769C9.50686 7.34726 9.50846 7.34729 9.50926 7.34734C9.51011 7.3474 9.51092 7.34753 9.51183 7.3478C9.51241 7.34797 9.51313 7.34822 9.51395 7.34858C9.51031 7.35154 9.50729 7.35303 9.50558 7.35366C9.50458 7.35402 9.50383 7.35418 9.50316 7.35427C9.50254 7.35434 9.5011 7.35447 9.49847 7.35417Z" stroke="url(#paint18_linear_223_39575)" stroke-width="0.813276" stroke-miterlimit="10"/>
<path d="M9.49847 7.35417L9.47828 7.35188L9.50421 7.34769C9.50686 7.34726 9.50846 7.34729 9.50926 7.34734C9.51011 7.3474 9.51092 7.34753 9.51183 7.3478C9.51241 7.34797 9.51313 7.34822 9.51395 7.34858C9.51031 7.35154 9.50729 7.35303 9.50558 7.35366C9.50458 7.35402 9.50383 7.35418 9.50316 7.35427C9.50254 7.35434 9.5011 7.35447 9.49847 7.35417Z" stroke="url(#paint19_linear_223_39575)" stroke-width="0.813276" stroke-miterlimit="10"/>
<path d="M9.49847 7.35417L9.47828 7.35188L9.50421 7.34769C9.50686 7.34726 9.50846 7.34729 9.50926 7.34734C9.51011 7.3474 9.51092 7.34753 9.51183 7.3478C9.51241 7.34797 9.51313 7.34822 9.51395 7.34858C9.51031 7.35154 9.50729 7.35303 9.50558 7.35366C9.50458 7.35402 9.50383 7.35418 9.50316 7.35427C9.50254 7.35434 9.5011 7.35447 9.49847 7.35417Z" stroke="white" stroke-opacity="0.54" stroke-width="0.813276" stroke-miterlimit="10"/>
<path d="M9.49847 13.2259L9.47828 13.2236L9.50421 13.2194C9.50686 13.219 9.50846 13.219 9.50926 13.219C9.51011 13.2191 9.51092 13.2192 9.51183 13.2195C9.51242 13.2197 9.51313 13.2199 9.51395 13.2203C9.51031 13.2232 9.50729 13.2247 9.50558 13.2254C9.50458 13.2257 9.50383 13.2259 9.50316 13.226C9.50254 13.226 9.5011 13.2262 9.49847 13.2259Z" stroke="url(#paint20_linear_223_39575)" stroke-width="0.813276" stroke-miterlimit="10"/>
<path d="M9.49847 13.2259L9.47828 13.2236L9.50421 13.2194C9.50686 13.219 9.50846 13.219 9.50926 13.219C9.51011 13.2191 9.51092 13.2192 9.51183 13.2195C9.51242 13.2197 9.51313 13.2199 9.51395 13.2203C9.51031 13.2232 9.50729 13.2247 9.50558 13.2254C9.50458 13.2257 9.50383 13.2259 9.50316 13.226C9.50254 13.226 9.5011 13.2262 9.49847 13.2259Z" stroke="url(#paint21_linear_223_39575)" stroke-width="0.813276" stroke-miterlimit="10"/>
<path d="M9.49847 13.2259L9.47828 13.2236L9.50421 13.2194C9.50686 13.219 9.50846 13.219 9.50926 13.219C9.51011 13.2191 9.51092 13.2192 9.51183 13.2195C9.51242 13.2197 9.51313 13.2199 9.51395 13.2203C9.51031 13.2232 9.50729 13.2247 9.50558 13.2254C9.50458 13.2257 9.50383 13.2259 9.50316 13.226C9.50254 13.226 9.5011 13.2262 9.49847 13.2259Z" stroke="white" stroke-opacity="0.54" stroke-width="0.813276" stroke-miterlimit="10"/>
<path d="M28.1456 13.8966L30.6774 18.2342H26.0096L24.1102 15.0532L23.9909 14.8535L23.7583 14.8551L22.1016 14.8663L21.6977 14.869V15.2729V18.2338H17.7504V2.13744H23.9544H23.9636L23.9728 2.13703C24.3652 2.11926 26.7957 2.05638 28.6392 4.08485L28.6392 4.08488C30.0402 5.62617 30.6999 7.92566 30.1883 10.0924L30.1883 10.0924C29.7642 11.8886 28.6798 12.9796 28.2247 13.3895L27.9788 13.6109L28.1456 13.8966Z" stroke="url(#paint22_linear_223_39575)" stroke-width="0.813276" stroke-miterlimit="10"/>
<path d="M28.1456 13.8966L30.6774 18.2342H26.0096L24.1102 15.0532L23.9909 14.8535L23.7583 14.8551L22.1016 14.8663L21.6977 14.869V15.2729V18.2338H17.7504V2.13744H23.9544H23.9636L23.9728 2.13703C24.3652 2.11926 26.7957 2.05638 28.6392 4.08485L28.6392 4.08488C30.0402 5.62617 30.6999 7.92566 30.1883 10.0924L30.1883 10.0924C29.7642 11.8886 28.6798 12.9796 28.2247 13.3895L27.9788 13.6109L28.1456 13.8966Z" stroke="url(#paint23_linear_223_39575)" stroke-width="0.813276" stroke-miterlimit="10"/>
<path d="M28.1456 13.8966L30.6774 18.2342H26.0096L24.1102 15.0532L23.9909 14.8535L23.7583 14.8551L22.1016 14.8663L21.6977 14.869V15.2729V18.2338H17.7504V2.13744H23.9544H23.9636L23.9728 2.13703C24.3652 2.11926 26.7957 2.05638 28.6392 4.08485L28.6392 4.08488C30.0402 5.62617 30.6999 7.92566 30.1883 10.0924L30.1883 10.0924C29.7642 11.8886 28.6798 12.9796 28.2247 13.3895L27.9788 13.6109L28.1456 13.8966Z" stroke="white" stroke-opacity="0.54" stroke-width="0.813276" stroke-miterlimit="10"/>
<path d="M24.4107 11.4773L24.389 11.4746M24.4107 11.4773L24.4104 11.4772L24.389 11.4746M24.4107 11.4773L24.411 11.4773M24.4107 11.4773L24.411 11.4773M24.389 11.4746H24.3647M24.389 11.4746H24.3647M24.3647 11.4746H20.9004V5.55285C21.233 5.55375 21.5498 5.55492 21.8495 5.55603C22.8579 5.55977 23.673 5.56279 24.2468 5.55188C24.2469 5.55187 24.2469 5.55187 24.247 5.55187L24.2557 5.55171C24.4968 5.54723 24.9476 5.53886 25.4915 5.73053C25.7579 5.82452 25.9676 5.93835 26.1092 6.02491C26.5665 6.3317 26.797 6.77727 26.9087 7.00292C27.2816 7.75813 27.2213 8.47384 27.1986 8.70305L27.1986 8.70321C27.1011 9.68874 26.5306 10.6628 25.6412 11.1708L25.641 11.1709M24.3647 11.4746L25.641 11.1709M25.641 11.1709C25.3106 11.3598 24.9951 11.4359 24.7634 11.4649M25.641 11.1709L24.7634 11.4649M24.7634 11.4649C24.6477 11.4793 24.5543 11.4818 24.4923 11.481M24.7634 11.4649L24.4923 11.481M24.4923 11.481C24.4613 11.4806 24.4384 11.4794 24.4248 11.4784M24.4923 11.481L24.4248 11.4784M24.4248 11.4784L24.4115 11.4773M24.4248 11.4784L24.4115 11.4773M24.4115 11.4773L24.411 11.4773M24.4115 11.4773L24.411 11.4773" stroke="url(#paint24_linear_223_39575)" stroke-width="0.813276" stroke-miterlimit="10"/>
<path d="M24.4107 11.4773L24.389 11.4746M24.4107 11.4773L24.4104 11.4772L24.389 11.4746M24.4107 11.4773L24.411 11.4773M24.4107 11.4773L24.411 11.4773M24.389 11.4746H24.3647M24.389 11.4746H24.3647M24.3647 11.4746H20.9004V5.55285C21.233 5.55375 21.5498 5.55492 21.8495 5.55603C22.8579 5.55977 23.673 5.56279 24.2468 5.55188C24.2469 5.55187 24.2469 5.55187 24.247 5.55187L24.2557 5.55171C24.4968 5.54723 24.9476 5.53886 25.4915 5.73053C25.7579 5.82452 25.9676 5.93835 26.1092 6.02491C26.5665 6.3317 26.797 6.77727 26.9087 7.00292C27.2816 7.75813 27.2213 8.47384 27.1986 8.70305L27.1986 8.70321C27.1011 9.68874 26.5306 10.6628 25.6412 11.1708L25.641 11.1709M24.3647 11.4746L25.641 11.1709M25.641 11.1709C25.3106 11.3598 24.9951 11.4359 24.7634 11.4649M25.641 11.1709L24.7634 11.4649M24.7634 11.4649C24.6477 11.4793 24.5543 11.4818 24.4923 11.481M24.7634 11.4649L24.4923 11.481M24.4923 11.481C24.4613 11.4806 24.4384 11.4794 24.4248 11.4784M24.4923 11.481L24.4248 11.4784M24.4248 11.4784L24.4115 11.4773M24.4248 11.4784L24.4115 11.4773M24.4115 11.4773L24.411 11.4773M24.4115 11.4773L24.411 11.4773" stroke="url(#paint25_linear_223_39575)" stroke-width="0.813276" stroke-miterlimit="10"/>
<path d="M24.4107 11.4773L24.389 11.4746M24.4107 11.4773L24.4104 11.4772L24.389 11.4746M24.4107 11.4773L24.411 11.4773M24.4107 11.4773L24.411 11.4773M24.389 11.4746H24.3647M24.389 11.4746H24.3647M24.3647 11.4746H20.9004V5.55285C21.233 5.55375 21.5498 5.55492 21.8495 5.55603C22.8579 5.55977 23.673 5.56279 24.2468 5.55188C24.2469 5.55187 24.2469 5.55187 24.247 5.55187L24.2557 5.55171C24.4968 5.54723 24.9476 5.53886 25.4915 5.73053C25.7579 5.82452 25.9676 5.93835 26.1092 6.02491C26.5665 6.3317 26.797 6.77727 26.9087 7.00292C27.2816 7.75813 27.2213 8.47384 27.1986 8.70305L27.1986 8.70321C27.1011 9.68874 26.5306 10.6628 25.6412 11.1708L25.641 11.1709M24.3647 11.4746L25.641 11.1709M25.641 11.1709C25.3106 11.3598 24.9951 11.4359 24.7634 11.4649M25.641 11.1709L24.7634 11.4649M24.7634 11.4649C24.6477 11.4793 24.5543 11.4818 24.4923 11.481M24.7634 11.4649L24.4923 11.481M24.4923 11.481C24.4613 11.4806 24.4384 11.4794 24.4248 11.4784M24.4923 11.481L24.4248 11.4784M24.4248 11.4784L24.4115 11.4773M24.4248 11.4784L24.4115 11.4773M24.4115 11.4773L24.411 11.4773M24.4115 11.4773L24.411 11.4773" stroke="white" stroke-opacity="0.54" stroke-width="0.813276" stroke-miterlimit="10"/>
<path d="M22.4512 9.77589H24.6464C24.7759 9.73016 24.9549 9.64645 25.1302 9.48802C25.2578 9.37249 25.5847 9.06969 25.6213 8.56964L22.4512 9.77589ZM22.4512 9.77589V7.19836H24.5688C24.6921 7.2189 25.0533 7.30312 25.3285 7.65375C25.4283 7.78097 25.6542 8.11754 25.6213 8.56957L22.4512 9.77589Z" stroke="url(#paint26_linear_223_39575)" stroke-width="0.813276" stroke-miterlimit="10"/>
<path d="M22.4512 9.77589H24.6464C24.7759 9.73016 24.9549 9.64645 25.1302 9.48802C25.2578 9.37249 25.5847 9.06969 25.6213 8.56964L22.4512 9.77589ZM22.4512 9.77589V7.19836H24.5688C24.6921 7.2189 25.0533 7.30312 25.3285 7.65375C25.4283 7.78097 25.6542 8.11754 25.6213 8.56957L22.4512 9.77589Z" stroke="url(#paint27_linear_223_39575)" stroke-width="0.813276" stroke-miterlimit="10"/>
<path d="M22.4512 9.77589H24.6464C24.7759 9.73016 24.9549 9.64645 25.1302 9.48802C25.2578 9.37249 25.5847 9.06969 25.6213 8.56964L22.4512 9.77589ZM22.4512 9.77589V7.19836H24.5688C24.6921 7.2189 25.0533 7.30312 25.3285 7.65375C25.4283 7.78097 25.6542 8.11754 25.6213 8.56957L22.4512 9.77589Z" stroke="white" stroke-opacity="0.54" stroke-width="0.813276" stroke-miterlimit="10"/>
<path d="M37.9501 16.6326L37.7107 16.634L37.5957 16.8441L36.7899 18.3168H32.3575L41.1806 1.86331L50.1021 18.3168H45.6672L44.792 16.7984L44.6738 16.5935L44.4373 16.5949L37.9501 16.6326Z" stroke="url(#paint28_linear_223_39575)" stroke-width="0.813276" stroke-miterlimit="10"/>
<path d="M37.9501 16.6326L37.7107 16.634L37.5957 16.8441L36.7899 18.3168H32.3575L41.1806 1.86331L50.1021 18.3168H45.6672L44.792 16.7984L44.6738 16.5935L44.4373 16.5949L37.9501 16.6326Z" stroke="url(#paint29_linear_223_39575)" stroke-width="0.813276" stroke-miterlimit="10"/>
<path d="M37.9501 16.6326L37.7107 16.634L37.5957 16.8441L36.7899 18.3168H32.3575L41.1806 1.86331L50.1021 18.3168H45.6672L44.792 16.7984L44.6738 16.5935L44.4373 16.5949L37.9501 16.6326Z" stroke="white" stroke-opacity="0.54" stroke-width="0.813276" stroke-miterlimit="10"/>
<path d="M43.7159 13.292H38.726L41.2304 8.58907L43.7159 13.292Z" stroke="url(#paint30_linear_223_39575)" stroke-width="0.813276" stroke-miterlimit="10"/>
<path d="M43.7159 13.292H38.726L41.2304 8.58907L43.7159 13.292Z" stroke="url(#paint31_linear_223_39575)" stroke-width="0.813276" stroke-miterlimit="10"/>
<path d="M43.7159 13.292H38.726L41.2304 8.58907L43.7159 13.292Z" stroke="white" stroke-opacity="0.54" stroke-width="0.813276" stroke-miterlimit="10"/>
<mask id="path-17-inside-1_223_39575" fill="white">
<path d="M41.2197 10.9549L40.7527 11.9447H41.767L41.2197 10.9549Z"/>
</mask>
<path d="M41.2197 10.9549L41.9314 10.5614L41.1623 9.17042L40.4841 10.6079L41.2197 10.9549ZM40.7527 11.9447L40.0172 11.5977L39.4698 12.758H40.7527V11.9447ZM41.767 11.9447V12.758H43.146L42.4787 11.5512L41.767 11.9447ZM40.4841 10.6079L40.0172 11.5977L41.4882 12.2917L41.9552 11.3019L40.4841 10.6079ZM40.7527 12.758H41.767V11.1315H40.7527V12.758ZM42.4787 11.5512L41.9314 10.5614L40.5079 11.3484L41.0553 12.3383L42.4787 11.5512Z" fill="url(#paint32_linear_223_39575)" mask="url(#path-17-inside-1_223_39575)"/>
<path d="M41.2197 10.9549L41.9314 10.5614L41.1623 9.17042L40.4841 10.6079L41.2197 10.9549ZM40.7527 11.9447L40.0172 11.5977L39.4698 12.758H40.7527V11.9447ZM41.767 11.9447V12.758H43.146L42.4787 11.5512L41.767 11.9447ZM40.4841 10.6079L40.0172 11.5977L41.4882 12.2917L41.9552 11.3019L40.4841 10.6079ZM40.7527 12.758H41.767V11.1315H40.7527V12.758ZM42.4787 11.5512L41.9314 10.5614L40.5079 11.3484L41.0553 12.3383L42.4787 11.5512Z" fill="url(#paint33_linear_223_39575)" mask="url(#path-17-inside-1_223_39575)"/>
<path d="M41.2197 10.9549L41.9314 10.5614L41.1623 9.17042L40.4841 10.6079L41.2197 10.9549ZM40.7527 11.9447L40.0172 11.5977L39.4698 12.758H40.7527V11.9447ZM41.767 11.9447V12.758H43.146L42.4787 11.5512L41.767 11.9447ZM40.4841 10.6079L40.0172 11.5977L41.4882 12.2917L41.9552 11.3019L40.4841 10.6079ZM40.7527 12.758H41.767V11.1315H40.7527V12.758ZM42.4787 11.5512L41.9314 10.5614L40.5079 11.3484L41.0553 12.3383L42.4787 11.5512Z" fill="white" fill-opacity="0.54" mask="url(#path-17-inside-1_223_39575)"/>
<path d="M89.9442 16.5322L89.6914 16.5306L89.5781 16.7566L88.8168 18.2753H84.3921L93.2095 1.83639L102.098 18.2753H97.5822L96.7122 16.7755L96.5955 16.5743L96.363 16.5729L89.9442 16.5322Z" stroke="url(#paint34_linear_223_39575)" stroke-width="0.813276" stroke-miterlimit="10"/>
<path d="M89.9442 16.5322L89.6914 16.5306L89.5781 16.7566L88.8168 18.2753H84.3921L93.2095 1.83639L102.098 18.2753H97.5822L96.7122 16.7755L96.5955 16.5743L96.363 16.5729L89.9442 16.5322Z" stroke="url(#paint35_linear_223_39575)" stroke-width="0.813276" stroke-miterlimit="10"/>
<path d="M89.9442 16.5322L89.6914 16.5306L89.5781 16.7566L88.8168 18.2753H84.3921L93.2095 1.83639L102.098 18.2753H97.5822L96.7122 16.7755L96.5955 16.5743L96.363 16.5729L89.9442 16.5322Z" stroke="white" stroke-opacity="0.54" stroke-width="0.813276" stroke-miterlimit="10"/>
<path d="M95.7166 13.1543H90.7711L93.2458 8.59688L95.7166 13.1543Z" stroke="url(#paint36_linear_223_39575)" stroke-width="0.813276" stroke-miterlimit="10"/>
<path d="M95.7166 13.1543H90.7711L93.2458 8.59688L95.7166 13.1543Z" stroke="url(#paint37_linear_223_39575)" stroke-width="0.813276" stroke-miterlimit="10"/>
<path d="M95.7166 13.1543H90.7711L93.2458 8.59688L95.7166 13.1543Z" stroke="white" stroke-opacity="0.54" stroke-width="0.813276" stroke-miterlimit="10"/>
<mask id="path-21-inside-2_223_39575" fill="white">
<path d="M93.2435 10.9022L92.6193 11.9456H93.8016L93.2435 10.9022Z"/>
</mask>
<path d="M93.2435 10.9022L93.9606 10.5186L93.283 9.25201L92.5455 10.4847L93.2435 10.9022ZM92.6193 11.9456L91.9213 11.5281L91.185 12.7589H92.6193V11.9456ZM93.8016 11.9456V12.7589H95.1591L94.5188 11.562L93.8016 11.9456ZM92.5455 10.4847L91.9213 11.5281L93.3172 12.3631L93.9414 11.3197L92.5455 10.4847ZM92.6193 12.7589H93.8016V11.1323H92.6193V12.7589ZM94.5188 11.562L93.9606 10.5186L92.5263 11.2859L93.0845 12.3292L94.5188 11.562Z" fill="url(#paint38_linear_223_39575)" mask="url(#path-21-inside-2_223_39575)"/>
<path d="M93.2435 10.9022L93.9606 10.5186L93.283 9.25201L92.5455 10.4847L93.2435 10.9022ZM92.6193 11.9456L91.9213 11.5281L91.185 12.7589H92.6193V11.9456ZM93.8016 11.9456V12.7589H95.1591L94.5188 11.562L93.8016 11.9456ZM92.5455 10.4847L91.9213 11.5281L93.3172 12.3631L93.9414 11.3197L92.5455 10.4847ZM92.6193 12.7589H93.8016V11.1323H92.6193V12.7589ZM94.5188 11.562L93.9606 10.5186L92.5263 11.2859L93.0845 12.3292L94.5188 11.562Z" fill="url(#paint39_linear_223_39575)" mask="url(#path-21-inside-2_223_39575)"/>
<path d="M93.2435 10.9022L93.9606 10.5186L93.283 9.25201L92.5455 10.4847L93.2435 10.9022ZM92.6193 11.9456L91.9213 11.5281L91.185 12.7589H92.6193V11.9456ZM93.8016 11.9456V12.7589H95.1591L94.5188 11.562L93.8016 11.9456ZM92.5455 10.4847L91.9213 11.5281L93.3172 12.3631L93.9414 11.3197L92.5455 10.4847ZM92.6193 12.7589H93.8016V11.1323H92.6193V12.7589ZM94.5188 11.562L93.9606 10.5186L92.5263 11.2859L93.0845 12.3292L94.5188 11.562Z" fill="white" fill-opacity="0.54" mask="url(#path-21-inside-2_223_39575)"/>
</g>
<defs>
<filter id="filter0_d_223_39575" x="0.656018" y="0.403503" width="133.109" height="20.6797" filterUnits="userSpaceOnUse" color-interpolation-filters="sRGB">
<feFlood flood-opacity="0" result="BackgroundImageFix"/>
<feColorMatrix in="SourceAlpha" type="matrix" values="0 0 0 0 0 0 0 0 0 0 0 0 0 0 0 0 0 0 127 0" result="hardAlpha"/>
<feOffset dy="0.629138"/>
<feGaussianBlur stdDeviation="0.314569"/>
<feComposite in2="hardAlpha" operator="out"/>
<feColorMatrix type="matrix" values="0 0 0 0 0.7125 0 0 0 0 0.631037 0 0 0 0 0.421562 0 0 0 0.8 0"/>
<feBlend mode="normal" in2="BackgroundImageFix" result="effect1_dropShadow_223_39575"/>
<feBlend mode="normal" in="SourceGraphic" in2="effect1_dropShadow_223_39575" result="shape"/>
</filter>
<linearGradient id="paint0_linear_223_39575" x1="58.0145" y1="1.95776" x2="58.0145" y2="18.7649" gradientUnits="userSpaceOnUse">
<stop stop-color="#F5F5F5"/>
<stop offset="1" stop-color="#E2C45B" stop-opacity="0.49"/>
</linearGradient>
<linearGradient id="paint1_linear_223_39575" x1="58.0145" y1="1.95776" x2="58.0145" y2="18.7649" gradientUnits="userSpaceOnUse">
<stop stop-color="#FEB700"/>
<stop offset="1" stop-color="#F1CC48" stop-opacity="0"/>
</linearGradient>
<linearGradient id="paint2_linear_223_39575" x1="74.967" y1="0.403503" x2="74.967" y2="18.7649" gradientUnits="userSpaceOnUse">
<stop stop-color="#F5F5F5"/>
<stop offset="1" stop-color="#E2C45B" stop-opacity="0.49"/>
</linearGradient>
<linearGradient id="paint3_linear_223_39575" x1="74.967" y1="0.403503" x2="74.967" y2="18.7649" gradientUnits="userSpaceOnUse">
<stop stop-color="#FEB700"/>
<stop offset="1" stop-color="#F1CC48" stop-opacity="0"/>
</linearGradient>
<linearGradient id="paint4_linear_223_39575" x1="110.353" y1="0.900238" x2="110.353" y2="19.8249" gradientUnits="userSpaceOnUse">
<stop stop-color="#F5F5F5"/>
<stop offset="1" stop-color="#E2C45B" stop-opacity="0.49"/>
</linearGradient>
<linearGradient id="paint5_linear_223_39575" x1="110.353" y1="0.900238" x2="110.353" y2="19.8249" gradientUnits="userSpaceOnUse">
<stop stop-color="#FEB700"/>
<stop offset="1" stop-color="#F1CC48" stop-opacity="0"/>
</linearGradient>
<linearGradient id="paint6_linear_223_39575" x1="126.462" y1="1.96426" x2="126.462" y2="18.6405" gradientUnits="userSpaceOnUse">
<stop stop-color="#F5F5F5"/>
<stop offset="1" stop-color="#E2C45B" stop-opacity="0.49"/>
</linearGradient>
<linearGradient id="paint7_linear_223_39575" x1="126.462" y1="1.96426" x2="126.462" y2="18.6405" gradientUnits="userSpaceOnUse">
<stop stop-color="#FEB700"/>
<stop offset="1" stop-color="#F1CC48" stop-opacity="0"/>
</linearGradient>
<linearGradient id="paint8_linear_223_39575" x1="126.47" y1="5.30359" x2="126.47" y2="15.1793" gradientUnits="userSpaceOnUse">
<stop stop-color="#F5F5F5"/>
<stop offset="1" stop-color="#E2C45B" stop-opacity="0.49"/>
</linearGradient>
<linearGradient id="paint9_linear_223_39575" x1="126.47" y1="5.30359" x2="126.47" y2="15.1793" gradientUnits="userSpaceOnUse">
<stop stop-color="#FEB700"/>
<stop offset="1" stop-color="#F1CC48" stop-opacity="0"/>
</linearGradient>
<linearGradient id="paint10_linear_223_39575" x1="126.614" y1="7.00793" x2="126.614" y2="13.8312" gradientUnits="userSpaceOnUse">
<stop stop-color="#F5F5F5"/>
<stop offset="1" stop-color="#E2C45B" stop-opacity="0.49"/>
</linearGradient>
<linearGradient id="paint11_linear_223_39575" x1="126.614" y1="7.00793" x2="126.614" y2="13.8312" gradientUnits="userSpaceOnUse">
<stop stop-color="#FEB700"/>
<stop offset="1" stop-color="#F1CC48" stop-opacity="0"/>
</linearGradient>
<linearGradient id="paint12_linear_223_39575" x1="7.94206" y1="1.85022" x2="7.94206" y2="18.6863" gradientUnits="userSpaceOnUse">
<stop stop-color="#F5F5F5"/>
<stop offset="1" stop-color="#E2C45B" stop-opacity="0.49"/>
</linearGradient>
<linearGradient id="paint13_linear_223_39575" x1="7.94206" y1="1.85022" x2="7.94206" y2="18.6863" gradientUnits="userSpaceOnUse">
<stop stop-color="#FEB700"/>
<stop offset="1" stop-color="#F1CC48" stop-opacity="0"/>
</linearGradient>
<linearGradient id="paint14_linear_223_39575" x1="7.92286" y1="5.25092" x2="7.92286" y2="9.4524" gradientUnits="userSpaceOnUse">
<stop stop-color="#F5F5F5"/>
<stop offset="1" stop-color="#E2C45B" stop-opacity="0.49"/>
</linearGradient>
<linearGradient id="paint15_linear_223_39575" x1="7.92286" y1="5.25092" x2="7.92286" y2="9.4524" gradientUnits="userSpaceOnUse">
<stop stop-color="#FEB700"/>
<stop offset="1" stop-color="#F1CC48" stop-opacity="0"/>
</linearGradient>
<linearGradient id="paint16_linear_223_39575" x1="7.92286" y1="11.1759" x2="7.92286" y2="15.2695" gradientUnits="userSpaceOnUse">
<stop stop-color="#F5F5F5"/>
<stop offset="1" stop-color="#E2C45B" stop-opacity="0.49"/>
</linearGradient>
<linearGradient id="paint17_linear_223_39575" x1="7.92286" y1="11.1759" x2="7.92286" y2="15.2695" gradientUnits="userSpaceOnUse">
<stop stop-color="#FEB700"/>
<stop offset="1" stop-color="#F1CC48" stop-opacity="0"/>
</linearGradient>
<linearGradient id="paint18_linear_223_39575" x1="7.94473" y1="6.94067" x2="7.94473" y2="7.761" gradientUnits="userSpaceOnUse">
<stop stop-color="#F5F5F5"/>
<stop offset="1" stop-color="#E2C45B" stop-opacity="0.49"/>
</linearGradient>
<linearGradient id="paint19_linear_223_39575" x1="7.94473" y1="6.94067" x2="7.94473" y2="7.761" gradientUnits="userSpaceOnUse">
<stop stop-color="#FEB700"/>
<stop offset="1" stop-color="#F1CC48" stop-opacity="0"/>
</linearGradient>
<linearGradient id="paint20_linear_223_39575" x1="7.94473" y1="12.8124" x2="7.94473" y2="13.6327" gradientUnits="userSpaceOnUse">
<stop stop-color="#F5F5F5"/>
<stop offset="1" stop-color="#E2C45B" stop-opacity="0.49"/>
</linearGradient>
<linearGradient id="paint21_linear_223_39575" x1="7.94473" y1="12.8124" x2="7.94473" y2="13.6327" gradientUnits="userSpaceOnUse">
<stop stop-color="#FEB700"/>
<stop offset="1" stop-color="#F1CC48" stop-opacity="0"/>
</linearGradient>
<linearGradient id="paint22_linear_223_39575" x1="24.3647" y1="1.72571" x2="24.3647" y2="18.6409" gradientUnits="userSpaceOnUse">
<stop stop-color="#F5F5F5"/>
<stop offset="1" stop-color="#E2C45B" stop-opacity="0.49"/>
</linearGradient>
<linearGradient id="paint23_linear_223_39575" x1="24.3647" y1="1.72571" x2="24.3647" y2="18.6409" gradientUnits="userSpaceOnUse">
<stop stop-color="#FEB700"/>
<stop offset="1" stop-color="#F1CC48" stop-opacity="0"/>
</linearGradient>
<linearGradient id="paint24_linear_223_39575" x1="24.0585" y1="5.1434" x2="24.0585" y2="11.8878" gradientUnits="userSpaceOnUse">
<stop stop-color="#F5F5F5"/>
<stop offset="1" stop-color="#E2C45B" stop-opacity="0.49"/>
</linearGradient>
<linearGradient id="paint25_linear_223_39575" x1="24.0585" y1="5.1434" x2="24.0585" y2="11.8878" gradientUnits="userSpaceOnUse">
<stop stop-color="#FEB700"/>
<stop offset="1" stop-color="#F1CC48" stop-opacity="0"/>
</linearGradient>
<linearGradient id="paint26_linear_223_39575" x1="24.0379" y1="6.79172" x2="24.0379" y2="10.1825" gradientUnits="userSpaceOnUse">
<stop stop-color="#F5F5F5"/>
<stop offset="1" stop-color="#E2C45B" stop-opacity="0.49"/>
</linearGradient>
<linearGradient id="paint27_linear_223_39575" x1="24.0379" y1="6.79172" x2="24.0379" y2="10.1825" gradientUnits="userSpaceOnUse">
<stop stop-color="#FEB700"/>
<stop offset="1" stop-color="#F1CC48" stop-opacity="0"/>
</linearGradient>
<linearGradient id="paint28_linear_223_39575" x1="41.2316" y1="1.00656" x2="41.2316" y2="18.7235" gradientUnits="userSpaceOnUse">
<stop stop-color="#F5F5F5"/>
<stop offset="1" stop-color="#E2C45B" stop-opacity="0.49"/>
</linearGradient>
<linearGradient id="paint29_linear_223_39575" x1="41.2316" y1="1.00656" x2="41.2316" y2="18.7235" gradientUnits="userSpaceOnUse">
<stop stop-color="#FEB700"/>
<stop offset="1" stop-color="#F1CC48" stop-opacity="0"/>
</linearGradient>
<linearGradient id="paint30_linear_223_39575" x1="41.2197" y1="7.72137" x2="41.2197" y2="13.6987" gradientUnits="userSpaceOnUse">
<stop stop-color="#F5F5F5"/>
<stop offset="1" stop-color="#E2C45B" stop-opacity="0.49"/>
</linearGradient>
<linearGradient id="paint31_linear_223_39575" x1="41.2197" y1="7.72137" x2="41.2197" y2="13.6987" gradientUnits="userSpaceOnUse">
<stop stop-color="#FEB700"/>
<stop offset="1" stop-color="#F1CC48" stop-opacity="0"/>
</linearGradient>
<linearGradient id="paint32_linear_223_39575" x1="41.2598" y1="10.9549" x2="41.2598" y2="11.9447" gradientUnits="userSpaceOnUse">
<stop stop-color="#F5F5F5"/>
<stop offset="1" stop-color="#E2C45B" stop-opacity="0.49"/>
</linearGradient>
<linearGradient id="paint33_linear_223_39575" x1="41.2598" y1="10.9549" x2="41.2598" y2="11.9447" gradientUnits="userSpaceOnUse">
<stop stop-color="#FEB700"/>
<stop offset="1" stop-color="#F1CC48" stop-opacity="0"/>
</linearGradient>
<linearGradient id="paint34_linear_223_39575" x1="93.2461" y1="0.97876" x2="93.2461" y2="18.682" gradientUnits="userSpaceOnUse">
<stop stop-color="#F5F5F5"/>
<stop offset="1" stop-color="#E2C45B" stop-opacity="0.49"/>
</linearGradient>
<linearGradient id="paint35_linear_223_39575" x1="93.2461" y1="0.97876" x2="93.2461" y2="18.682" gradientUnits="userSpaceOnUse">
<stop stop-color="#FEB700"/>
<stop offset="1" stop-color="#F1CC48" stop-opacity="0"/>
</linearGradient>
<linearGradient id="paint36_linear_223_39575" x1="93.2436" y1="7.74423" x2="93.2436" y2="13.5609" gradientUnits="userSpaceOnUse">
<stop stop-color="#F5F5F5"/>
<stop offset="1" stop-color="#E2C45B" stop-opacity="0.49"/>
</linearGradient>
<linearGradient id="paint37_linear_223_39575" x1="93.2436" y1="7.74423" x2="93.2436" y2="13.5609" gradientUnits="userSpaceOnUse">
<stop stop-color="#FEB700"/>
<stop offset="1" stop-color="#F1CC48" stop-opacity="0"/>
</linearGradient>
<linearGradient id="paint38_linear_223_39575" x1="93.2105" y1="10.9022" x2="93.2105" y2="11.9456" gradientUnits="userSpaceOnUse">
<stop stop-color="#F5F5F5"/>
<stop offset="1" stop-color="#E2C45B" stop-opacity="0.49"/>
</linearGradient>
<linearGradient id="paint39_linear_223_39575" x1="93.2105" y1="10.9022" x2="93.2105" y2="11.9456" gradientUnits="userSpaceOnUse">
<stop stop-color="#FEB700"/>
<stop offset="1" stop-color="#F1CC48" stop-opacity="0"/>
</linearGradient>
</defs>
</svg>
