<svg width="25" height="19" viewBox="0 0 25 19" fill="none" xmlns="http://www.w3.org/2000/svg">
<path d="M21.1446 1.82791C19.6146 1.13791 17.9746 0.627911 16.2596 0.337911C16.2444 0.334979 16.2285 0.336869 16.2144 0.343318C16.2002 0.349768 16.1884 0.360459 16.1806 0.373911C15.9706 0.742911 15.7366 1.22391 15.5726 1.60391C13.7537 1.33215 11.9045 1.33215 10.0856 1.60391C9.90296 1.18277 9.69698 0.772135 9.46863 0.373911C9.46089 0.360294 9.44918 0.349361 9.43506 0.342571C9.42095 0.335782 9.4051 0.333458 9.38963 0.335911C7.67563 0.625911 6.03563 1.13591 4.50463 1.82691C4.49146 1.83244 4.48029 1.84186 4.47263 1.85391C1.36063 6.42891 0.507629 10.8909 0.926629 15.2969C0.927795 15.3077 0.931145 15.3181 0.936474 15.3276C0.941803 15.3371 0.949001 15.3453 0.957629 15.3519C2.77402 16.6743 4.79997 17.6817 6.95063 18.3319C6.96562 18.3365 6.98166 18.3365 6.99664 18.3319C7.01163 18.3272 7.02487 18.3182 7.03463 18.3059C7.49742 17.687 7.90753 17.0303 8.26063 16.3429C8.26553 16.3335 8.26835 16.3232 8.26891 16.3126C8.26947 16.302 8.26774 16.2914 8.26386 16.2816C8.25997 16.2717 8.25401 16.2628 8.24638 16.2554C8.23875 16.2481 8.22963 16.2424 8.21963 16.2389C7.57363 15.9956 6.94771 15.7021 6.34763 15.3609C6.33685 15.3548 6.32776 15.346 6.32119 15.3355C6.31461 15.325 6.31076 15.313 6.30996 15.3006C6.30917 15.2882 6.31146 15.2758 6.31664 15.2645C6.32182 15.2532 6.32972 15.2434 6.33963 15.2359C6.46563 15.1429 6.59163 15.0459 6.71163 14.9489C6.72243 14.9402 6.73544 14.9346 6.74921 14.9329C6.76298 14.9311 6.77698 14.9332 6.78963 14.9389C10.7166 16.7029 14.9696 16.7029 18.8506 14.9389C18.8633 14.9329 18.8775 14.9305 18.8914 14.9321C18.9054 14.9337 18.9186 14.9392 18.9296 14.9479C19.0496 15.0459 19.1746 15.1429 19.3016 15.2359C19.3116 15.2432 19.3197 15.2529 19.325 15.2641C19.3304 15.2753 19.3328 15.2876 19.3322 15.3C19.3316 15.3124 19.328 15.3245 19.3216 15.3351C19.3152 15.3457 19.3063 15.3546 19.2956 15.3609C18.6976 15.7049 18.0756 15.9959 17.4226 16.2379C17.4126 16.2416 17.4035 16.2473 17.3958 16.2547C17.3882 16.2622 17.3822 16.2712 17.3784 16.2811C17.3745 16.2911 17.3728 16.3017 17.3733 16.3124C17.3739 16.323 17.3767 16.3334 17.3816 16.3429C17.7416 17.0299 18.1536 17.6839 18.6066 18.3049C18.616 18.3177 18.6292 18.3272 18.6442 18.3322C18.6592 18.3372 18.6754 18.3375 18.6906 18.3329C20.845 17.6846 22.8742 16.6767 24.6926 15.3519C24.7015 15.3457 24.7089 15.3377 24.7145 15.3284C24.72 15.3191 24.7234 15.3087 24.7246 15.2979C25.2246 10.2039 23.8866 5.77791 21.1756 1.85591C21.169 1.84317 21.158 1.83323 21.1446 1.82791ZM8.84763 12.6139C7.66563 12.6139 6.69063 11.5449 6.69063 10.2339C6.69063 8.92191 7.64663 7.85391 8.84763 7.85391C10.0576 7.85391 11.0236 8.93091 11.0046 10.2339C11.0046 11.5459 10.0486 12.6139 8.84763 12.6139ZM16.8226 12.6139C15.6396 12.6139 14.6656 11.5449 14.6656 10.2339C14.6656 8.92191 15.6206 7.85391 16.8226 7.85391C18.0326 7.85391 18.9986 8.93091 18.9796 10.2339C18.9796 11.5459 18.0336 12.6139 16.8226 12.6139Z" fill="#BAA044"/>
</svg>
