<svg width="18" height="18" viewBox="0 0 18 18" fill="none" xmlns="http://www.w3.org/2000/svg">
<g clip-path="url(#clip0_400_949)">
<path d="M9.14779 16.9792C13.6223 16.9792 17.2497 13.3518 17.2497 8.87728C17.2497 4.40273 13.6223 0.775391 9.14779 0.775391C4.67324 0.775391 1.0459 4.40273 1.0459 8.87728C1.0459 13.3518 4.67324 16.9792 9.14779 16.9792Z" stroke="#BAA044" stroke-width="0.833528" stroke-miterlimit="10" stroke-dasharray="0.83 0.83"/>
<path d="M9.14772 15.5455C12.8305 15.5455 15.8159 12.56 15.8159 8.87727C15.8159 5.19451 12.8305 2.20905 9.14772 2.20905C5.46496 2.20905 2.47949 5.19451 2.47949 8.87727C2.47949 12.56 5.46496 15.5455 9.14772 15.5455Z" stroke="#BAA044" stroke-width="0.833528" stroke-miterlimit="10"/>
<path d="M5.60742 8.87732H12.6874" stroke="#BAA044" stroke-width="0.833528" stroke-miterlimit="10"/>
</g>
<defs>
<clipPath id="clip0_400_949">
<rect width="17.0345" height="17.0345" fill="white" transform="translate(0.628906 0.358643)"/>
</clipPath>
</defs>
</svg>
