<svg width="18" height="18" viewBox="0 0 18 18" fill="none" xmlns="http://www.w3.org/2000/svg">
<g clip-path="url(#clip0_299_33477)">
<path d="M9.17025 17.2802C13.6448 17.2802 17.2721 13.6529 17.2721 9.17831C17.2721 4.70376 13.6448 1.07642 9.17025 1.07642C4.6957 1.07642 1.06836 4.70376 1.06836 9.17831C1.06836 13.6529 4.6957 17.2802 9.17025 17.2802Z" stroke="#BAA044" stroke-width="0.833528" stroke-miterlimit="10" stroke-dasharray="0.83 0.83"/>
<path d="M9.17018 15.8465C12.8529 15.8465 15.8384 12.8611 15.8384 9.1783C15.8384 5.49554 12.8529 2.51007 9.17018 2.51007C5.48742 2.51007 2.50195 5.49554 2.50195 9.1783C2.50195 12.8611 5.48742 15.8465 9.17018 15.8465Z" stroke="#BAA044" stroke-width="0.833528" stroke-miterlimit="10"/>
<path d="M4.62695 9.17834H13.7096" stroke="#BAA044" stroke-width="0.833528" stroke-miterlimit="10"/>
<path d="M9.16992 4.63562V13.7183" stroke="#BAA044" stroke-width="0.833528" stroke-miterlimit="10"/>
</g>
<defs>
<clipPath id="clip0_299_33477">
<rect width="17.0345" height="17.0345" fill="white" transform="translate(0.651367 0.659668)"/>
</clipPath>
</defs>
</svg>
