<svg width="18" height="18" viewBox="0 0 18 18" fill="none" xmlns="http://www.w3.org/2000/svg">
<g clip-path="url(#clip0_299_33477)">
<path d="M8.93783 17.2802C13.4124 17.2802 17.0397 13.6529 17.0397 9.17831C17.0397 4.70376 13.4124 1.07642 8.93783 1.07642C4.46328 1.07642 0.835938 4.70376 0.835938 9.17831C0.835938 13.6529 4.46328 17.2802 8.93783 17.2802Z" stroke="#D8D7D7" stroke-width="0.833528" stroke-miterlimit="10" stroke-dasharray="0.83 0.83"/>
<path d="M8.93776 15.8465C12.6205 15.8465 15.606 12.8611 15.606 9.1783C15.606 5.49554 12.6205 2.51007 8.93776 2.51007C5.255 2.51007 2.26953 5.49554 2.26953 9.1783C2.26953 12.8611 5.255 15.8465 8.93776 15.8465Z" stroke="#D8D7D7" stroke-width="0.833528" stroke-miterlimit="10"/>
<path d="M4.39453 9.17834H13.4772" stroke="#D8D7D7" stroke-width="0.833528" stroke-miterlimit="10"/>
<path d="M8.9375 4.63562V13.7183" stroke="#D8D7D7" stroke-width="0.833528" stroke-miterlimit="10"/>
</g>
<defs>
<clipPath id="clip0_299_33477">
<rect width="17.0345" height="17.0345" fill="white" transform="translate(0.418945 0.659668)"/>
</clipPath>
</defs>
</svg>
