<svg width="25" height="21" viewBox="0 0 25 21" fill="none" xmlns="http://www.w3.org/2000/svg">
<path d="M24.1283 3.08713C23.2423 3.46934 22.278 3.74442 21.2849 3.85156C22.316 3.23896 23.0882 2.27115 23.4565 1.12971C22.4889 1.70532 21.4289 2.10895 20.3235 2.32269C19.8615 1.82878 19.3027 1.43531 18.682 1.1668C18.0613 0.898285 17.3919 0.760481 16.7156 0.761975C13.9793 0.761975 11.7787 2.97999 11.7787 5.70184C11.7787 6.08406 11.825 6.46627 11.9003 6.83401C7.80302 6.61974 4.1488 4.66232 1.71941 1.6654C1.27675 2.42148 1.04478 3.28236 1.04763 4.15849C1.04763 5.87268 1.9192 7.38417 3.24827 8.27312C2.46503 8.24227 1.70013 8.02699 1.01578 7.64477V7.70558C1.01578 10.106 2.71259 12.0953 4.97404 12.5528C4.54943 12.6631 4.11263 12.7195 3.67393 12.7207C3.35252 12.7207 3.04848 12.6889 2.74155 12.6454C3.36699 14.6029 5.18831 16.0246 7.3571 16.0709C5.66029 17.4 3.53494 18.1818 1.22716 18.1818C0.813091 18.1818 0.430874 18.1673 0.0341797 18.121C2.22324 19.5253 4.82058 20.3361 7.61771 20.3361C16.6982 20.3361 21.6671 12.8134 21.6671 6.28385C21.6671 6.06958 21.6671 5.8553 21.6526 5.64103C22.6139 4.9374 23.4565 4.06583 24.1283 3.08713Z" fill="#BAA044"/>
</svg>
