<svg width="218" height="60" viewBox="0 0 218 60" fill="none" xmlns="http://www.w3.org/2000/svg">
<rect x="0.444336" width="217.147" height="60" rx="6" fill="url(#paint0_linear_122_2605)"/>
<path d="M54.7407 31.2168L58.9419 37H56.437L52.561 31.4453H52.1919V37H50.144V23.4297H52.5435C54.3364 23.4297 55.6313 23.7666 56.4282 24.4404C57.3071 25.1904 57.7466 26.1807 57.7466 27.4111C57.7466 28.3721 57.4712 29.1982 56.9204 29.8896C56.3696 30.5811 55.6431 31.0234 54.7407 31.2168ZM52.1919 29.6611H52.8423C54.7817 29.6611 55.7515 28.9199 55.7515 27.4375C55.7515 26.0488 54.8081 25.3545 52.9214 25.3545H52.1919V29.6611ZM69.0089 33.1855H62.8741C62.9269 33.8887 63.1554 34.4482 63.5597 34.8643C63.964 35.2744 64.4825 35.4795 65.1153 35.4795C65.6075 35.4795 66.0147 35.3623 66.337 35.1279C66.6534 34.8936 67.0138 34.46 67.4181 33.8271L69.088 34.7588C68.8302 35.1982 68.5577 35.5762 68.2706 35.8926C67.9835 36.2031 67.6759 36.4609 67.3478 36.666C67.0196 36.8652 66.6651 37.0117 66.2843 37.1055C65.9034 37.1992 65.4903 37.2461 65.045 37.2461C63.7677 37.2461 62.7423 36.8359 61.9688 36.0156C61.1954 35.1895 60.8087 34.0938 60.8087 32.7285C60.8087 31.375 61.1837 30.2793 61.9337 29.4414C62.6896 28.6152 63.6915 28.2021 64.9396 28.2021C66.1993 28.2021 67.1954 28.6035 67.9278 29.4062C68.6544 30.2031 69.0177 31.3076 69.0177 32.7197L69.0089 33.1855ZM66.9786 31.5684C66.7032 30.5137 66.0382 29.9863 64.9835 29.9863C64.7433 29.9863 64.5177 30.0244 64.3067 30.1006C64.0958 30.1709 63.9024 30.2764 63.7267 30.417C63.5567 30.5518 63.4103 30.7158 63.2872 30.9092C63.1642 31.1025 63.0704 31.3223 63.006 31.5684H66.9786ZM80.3591 36.7979C80.3591 37.2021 80.3444 37.5566 80.3151 37.8613C80.2917 38.1719 80.2565 38.4443 80.2097 38.6787C80.069 39.3232 79.7937 39.877 79.3835 40.3398C78.6101 41.2305 77.5466 41.6758 76.1931 41.6758C75.0505 41.6758 74.1101 41.3682 73.3718 40.7529C72.6101 40.1201 72.1706 39.2441 72.0534 38.125H74.0397C74.1159 38.5469 74.2419 38.8721 74.4177 39.1006C74.8278 39.6338 75.4255 39.9004 76.2106 39.9004C77.6579 39.9004 78.3815 39.0127 78.3815 37.2373V36.042C77.5964 36.8447 76.6911 37.2461 75.6657 37.2461C74.4997 37.2461 73.5446 36.8242 72.8005 35.9805C72.0505 35.125 71.6755 34.0557 71.6755 32.7725C71.6755 31.5244 72.0241 30.4639 72.7214 29.5908C73.4714 28.665 74.4616 28.2021 75.6921 28.2021C76.7702 28.2021 77.6667 28.6035 78.3815 29.4062V28.4395H80.3591V36.7979ZM78.4606 32.7373C78.4606 31.9053 78.238 31.2402 77.7927 30.7422C77.3415 30.2324 76.7644 29.9775 76.0612 29.9775C75.3112 29.9775 74.7194 30.2559 74.2858 30.8125C73.8933 31.3105 73.697 31.9551 73.697 32.7461C73.697 33.5254 73.8933 34.1641 74.2858 34.6621C74.7136 35.207 75.3054 35.4795 76.0612 35.4795C76.8171 35.4795 77.4147 35.2041 77.8542 34.6533C78.2585 34.1553 78.4606 33.5166 78.4606 32.7373ZM85.7327 28.4395V37H83.7552V28.4395H85.7327ZM83.4563 24.8799C83.4563 24.5342 83.5823 24.2354 83.8343 23.9834C84.0862 23.7314 84.388 23.6055 84.7396 23.6055C85.097 23.6055 85.4017 23.7314 85.6536 23.9834C85.9056 24.2295 86.0315 24.5312 86.0315 24.8887C86.0315 25.2461 85.9056 25.5508 85.6536 25.8027C85.4075 26.0547 85.1058 26.1807 84.7483 26.1807C84.3909 26.1807 84.0862 26.0547 83.8343 25.8027C83.5823 25.5508 83.4563 25.2432 83.4563 24.8799ZM94.1122 29.8984L92.4774 30.7686C92.2196 30.2412 91.9003 29.9775 91.5194 29.9775C91.3378 29.9775 91.1825 30.0391 91.0536 30.1621C90.9247 30.2793 90.8603 30.4316 90.8603 30.6191C90.8603 30.9473 91.2411 31.2725 92.0028 31.5947C93.0517 32.0459 93.7577 32.4619 94.121 32.8428C94.4843 33.2236 94.6659 33.7363 94.6659 34.3809C94.6659 35.207 94.3612 35.8984 93.7519 36.4551C93.1601 36.9824 92.4452 37.2461 91.6073 37.2461C90.1718 37.2461 89.1552 36.5459 88.5575 35.1455L90.245 34.3633C90.4794 34.7734 90.6581 35.0342 90.7812 35.1455C91.0214 35.3682 91.3085 35.4795 91.6425 35.4795C92.3104 35.4795 92.6444 35.1748 92.6444 34.5654C92.6444 34.2139 92.3866 33.8857 91.871 33.5811C91.6718 33.4814 91.4726 33.3848 91.2733 33.291C91.0741 33.1973 90.872 33.1006 90.6669 33.001C90.0927 32.7197 89.6884 32.4385 89.454 32.1572C89.1552 31.7998 89.0058 31.3398 89.0058 30.7773C89.0058 30.0332 89.2606 29.418 89.7704 28.9316C90.2919 28.4453 90.9247 28.2021 91.6688 28.2021C92.7645 28.2021 93.579 28.7676 94.1122 29.8984ZM99.3892 30.2852V37H97.4116V30.2852H96.5679V28.4395H97.4116V25.3018H99.3892V28.4395H100.927V30.2852H99.3892ZM111.126 33.1855H104.991C105.044 33.8887 105.273 34.4482 105.677 34.8643C106.081 35.2744 106.6 35.4795 107.233 35.4795C107.725 35.4795 108.132 35.3623 108.454 35.1279C108.771 34.8936 109.131 34.46 109.535 33.8271L111.205 34.7588C110.947 35.1982 110.675 35.5762 110.388 35.8926C110.101 36.2031 109.793 36.4609 109.465 36.666C109.137 36.8652 108.782 37.0117 108.401 37.1055C108.021 37.1992 107.608 37.2461 107.162 37.2461C105.885 37.2461 104.859 36.8359 104.086 36.0156C103.313 35.1895 102.926 34.0938 102.926 32.7285C102.926 31.375 103.301 30.2793 104.051 29.4414C104.807 28.6152 105.809 28.2021 107.057 28.2021C108.317 28.2021 109.313 28.6035 110.045 29.4062C110.772 30.2031 111.135 31.3076 111.135 32.7197L111.126 33.1855ZM109.096 31.5684C108.82 30.5137 108.155 29.9863 107.101 29.9863C106.86 29.9863 106.635 30.0244 106.424 30.1006C106.213 30.1709 106.02 30.2764 105.844 30.417C105.674 30.5518 105.527 30.7158 105.404 30.9092C105.281 31.1025 105.188 31.3223 105.123 31.5684H109.096ZM114.197 28.4395H116.175V29.2041C116.538 28.8232 116.86 28.5625 117.141 28.4219C117.428 28.2754 117.768 28.2021 118.161 28.2021C118.682 28.2021 119.227 28.3721 119.796 28.7119L118.89 30.5225C118.515 30.2529 118.149 30.1182 117.792 30.1182C116.714 30.1182 116.175 30.9326 116.175 32.5615V37H114.197V28.4395ZM130.71 28.7383H136.563V23.4297H138.611V37H136.563V30.6631H130.71V37H128.662V23.4297H130.71V28.7383ZM150.181 33.1855H144.046C144.099 33.8887 144.328 34.4482 144.732 34.8643C145.136 35.2744 145.655 35.4795 146.288 35.4795C146.78 35.4795 147.187 35.3623 147.509 35.1279C147.826 34.8936 148.186 34.46 148.59 33.8271L150.26 34.7588C150.002 35.1982 149.73 35.5762 149.443 35.8926C149.156 36.2031 148.848 36.4609 148.52 36.666C148.192 36.8652 147.837 37.0117 147.457 37.1055C147.076 37.1992 146.663 37.2461 146.217 37.2461C144.94 37.2461 143.915 36.8359 143.141 36.0156C142.368 35.1895 141.981 34.0938 141.981 32.7285C141.981 31.375 142.356 30.2793 143.106 29.4414C143.862 28.6152 144.864 28.2021 146.112 28.2021C147.372 28.2021 148.368 28.6035 149.1 29.4062C149.827 30.2031 150.19 31.3076 150.19 32.7197L150.181 33.1855ZM148.151 31.5684C147.875 30.5137 147.21 29.9863 146.156 29.9863C145.916 29.9863 145.69 30.0244 145.479 30.1006C145.268 30.1709 145.075 30.2764 144.899 30.417C144.729 30.5518 144.583 30.7158 144.459 30.9092C144.336 31.1025 144.243 31.3223 144.178 31.5684H148.151ZM153.252 28.4395H155.23V29.2041C155.593 28.8232 155.915 28.5625 156.196 28.4219C156.483 28.2754 156.823 28.2021 157.216 28.2021C157.737 28.2021 158.282 28.3721 158.851 28.7119L157.945 30.5225C157.57 30.2529 157.204 30.1182 156.847 30.1182C155.769 30.1182 155.23 30.9326 155.23 32.5615V37H153.252V28.4395ZM168.557 33.1855H162.423C162.475 33.8887 162.704 34.4482 163.108 34.8643C163.512 35.2744 164.031 35.4795 164.664 35.4795C165.156 35.4795 165.563 35.3623 165.885 35.1279C166.202 34.8936 166.562 34.46 166.967 33.8271L168.636 34.7588C168.379 35.1982 168.106 35.5762 167.819 35.8926C167.532 36.2031 167.224 36.4609 166.896 36.666C166.568 36.8652 166.214 37.0117 165.833 37.1055C165.452 37.1992 165.039 37.2461 164.593 37.2461C163.316 37.2461 162.291 36.8359 161.517 36.0156C160.744 35.1895 160.357 34.0938 160.357 32.7285C160.357 31.375 160.732 30.2793 161.482 29.4414C162.238 28.6152 163.24 28.2021 164.488 28.2021C165.748 28.2021 166.744 28.6035 167.476 29.4062C168.203 30.2031 168.566 31.3076 168.566 32.7197L168.557 33.1855ZM166.527 31.5684C166.252 30.5137 165.587 29.9863 164.532 29.9863C164.292 29.9863 164.066 30.0244 163.855 30.1006C163.644 30.1709 163.451 30.2764 163.275 30.417C163.105 30.5518 162.959 30.7158 162.836 30.9092C162.713 31.1025 162.619 31.3223 162.554 31.5684H166.527Z" fill="white"/>
<defs>
<linearGradient id="paint0_linear_122_2605" x1="109.018" y1="0" x2="109.018" y2="60" gradientUnits="userSpaceOnUse">
<stop offset="0.21875" stop-color="#D6BB75"/>
<stop offset="0.791667" stop-color="#897031"/>
</linearGradient>
</defs>
</svg>
