<svg width="772" height="11" viewBox="0 0 772 11" fill="none" xmlns="http://www.w3.org/2000/svg">
<path d="M0.304514 5.37744C0.304514 8.32296 2.69233 10.7108 5.63785 10.7108C8.58337 10.7108 10.9712 8.32296 10.9712 5.37744C10.9712 2.43192 8.58337 0.0441079 5.63785 0.0441079C2.69233 0.0441079 0.304514 2.43192 0.304514 5.37744ZM761.225 5.37744C761.225 8.32296 763.613 10.7108 766.558 10.7108C769.504 10.7108 771.891 8.32296 771.891 5.37744C771.891 2.43192 769.504 0.0441079 766.558 0.0441079C763.613 0.0441079 761.225 2.43192 761.225 5.37744ZM5.63785 6.37744H766.558V4.37744H5.63785V6.37744Z" fill="url(#paint0_linear_258_2990)"/>
<defs>
<linearGradient id="paint0_linear_258_2990" x1="386.098" y1="5.37744" x2="386.098" y2="6.37744" gradientUnits="userSpaceOnUse">
<stop offset="0.21875" stop-color="#D6BB75"/>
<stop offset="0.791667" stop-color="#897031"/>
</linearGradient>
</defs>
</svg>
