<svg width="356" height="7" viewBox="0 0 356 7" fill="none" xmlns="http://www.w3.org/2000/svg">
<g clip-path="url(#clip0_299_33394)">
<path d="M349.351 3.06973H349.455L349.474 2.96674C349.707 1.66247 350.834 0.669556 352.206 0.669556H352.22C353.748 0.669556 354.99 1.90848 354.99 3.43016C354.99 4.95184 353.748 6.19076 352.22 6.19076C350.847 6.19076 349.708 5.19709 349.488 3.89477L349.47 3.79059H349.364L180.871 3.79059H180.766L180.748 3.89358C180.515 5.19785 179.388 6.19076 178.016 6.19076C176.488 6.19076 175.245 4.95184 175.245 3.43016C175.245 1.90848 176.488 0.669556 178.016 0.669556C179.389 0.669556 180.528 1.66322 180.748 2.96555L180.765 3.06973H180.871L349.351 3.06973Z" fill="#BAA044" fill-opacity="0.9" stroke="#F5F5F5" stroke-width="0.25"/>
<path d="M275.307 0.592285C276.35 0.592285 277.229 1.17431 277.682 2.034L182.555 2.034C183.011 1.17474 183.899 0.592285 184.93 0.592285L275.307 0.592285Z" fill="#BAA044" fill-opacity="0.9" stroke="#F5F5F5" stroke-width="0.5"/>
<path d="M184.93 5.98484C184.013 5.98484 183.198 5.52748 182.712 4.82629L277.539 4.82629C277.053 5.52748 276.238 5.98484 275.32 5.98484L184.93 5.98484Z" fill="#BAA044" fill-opacity="0.9" stroke="#F5F5F5" stroke-width="0.5"/>
</g>
<g clip-path="url(#clip1_299_33394)">
<path d="M6.80103 3.58828L6.6964 3.58828L6.67798 3.69128C6.44472 4.99554 5.31769 5.98845 3.94589 5.98845L3.93234 5.98845C2.40425 5.98845 1.16162 4.74953 1.16162 3.22786C1.16162 1.70618 2.40425 0.46726 3.93234 0.46726C5.30508 0.46726 6.44424 1.46093 6.66422 2.76325L6.68182 2.86743L6.78748 2.86743L175.281 2.86744L175.386 2.86744L175.404 2.76445C175.637 1.46018 176.764 0.467272 178.136 0.467273C179.664 0.467273 180.907 1.70619 180.907 3.22787C180.907 4.74954 179.664 5.98846 178.136 5.98846C176.763 5.98846 175.624 4.9948 175.404 3.69248L175.387 3.5883L175.281 3.5883L6.80103 3.58828Z" fill="#BAA044" fill-opacity="0.9" stroke="#F5F5F5" stroke-width="0.25"/>
<path d="M80.6927 6.06573C79.6496 6.06573 78.7707 5.48371 78.3171 4.62402L173.444 4.62403C172.989 5.48328 172.101 6.06573 171.069 6.06573L80.6927 6.06573Z" fill="#BAA044" stroke="#F5F5F5" stroke-width="0.5"/>
<path d="M171.069 0.673183C171.986 0.673183 172.802 1.13054 173.287 1.83173L78.4608 1.83172C78.9462 1.13053 79.7619 0.673176 80.6791 0.673176L171.069 0.673183Z" fill="#BAA044" stroke="#F5F5F5" stroke-width="0.5"/>
</g>
<defs>
<clipPath id="clip0_299_33394">
<rect width="179.982" height="5.97347" fill="white" transform="translate(175.12 0.342285)"/>
</clipPath>
<clipPath id="clip1_299_33394">
<rect width="179.982" height="5.97345" fill="white" transform="translate(180.879 6.31573) rotate(-180)"/>
</clipPath>
</defs>
</svg>
