<svg width="31" height="31" viewBox="0 0 31 31" fill="none" xmlns="http://www.w3.org/2000/svg">
<path d="M8.21516 8.59299C8.21516 8.49237 8.29749 8.41003 8.39812 8.41003L9.90751 8.4169L12.1808 11.127L14.4517 8.41918L15.9634 8.41232C16.064 8.41232 16.1464 8.49237 16.1464 8.59528C16.1464 8.63873 16.1304 8.6799 16.1029 8.7142L13.1276 12.259L16.1029 15.8015C16.1305 15.835 16.1459 15.877 16.1464 15.9204C16.1464 16.0211 16.064 16.1034 15.9634 16.1034L14.4517 16.0965L12.1808 13.3865L9.9098 16.0942L8.4004 16.1011C8.29978 16.1011 8.21745 16.0211 8.21745 15.9181C8.21745 15.8747 8.23345 15.8335 8.2609 15.7992L11.2317 12.2567L8.25633 8.71191C8.22888 8.6799 8.21516 8.63644 8.21516 8.59299Z" fill="url(#paint0_linear_330_5603)"/>
<path d="M12.1808 1.96545C17.8388 1.96545 22.4264 6.55311 22.4264 12.2111C22.4264 17.869 17.8388 22.4567 12.1808 22.4567C6.52285 22.4567 1.93519 17.869 1.93519 12.2111C1.93519 6.55311 6.52285 1.96545 12.1808 1.96545ZM12.1808 20.7186C16.8782 20.7186 20.6883 16.9085 20.6883 12.2111C20.6883 7.51364 16.8782 3.70355 12.1808 3.70355C7.48338 3.70355 3.67329 7.51364 3.67329 12.2111C3.67329 16.9085 7.48338 20.7186 12.1808 20.7186Z" fill="url(#paint1_linear_330_5603)"/>
<defs>
<linearGradient id="paint0_linear_330_5603" x1="12.1808" y1="8.41003" x2="12.1808" y2="16.1034" gradientUnits="userSpaceOnUse">
<stop offset="0.21875" stop-color="#D6BB75"/>
<stop offset="0.791667" stop-color="#897031"/>
</linearGradient>
<linearGradient id="paint1_linear_330_5603" x1="12.1808" y1="1.96545" x2="12.1808" y2="22.4567" gradientUnits="userSpaceOnUse">
<stop offset="0.21875" stop-color="#D6BB75"/>
<stop offset="0.791667" stop-color="#897031"/>
</linearGradient>
</defs>
</svg>
