<svg width="21" height="16" viewBox="0 0 21 16" fill="none" xmlns="http://www.w3.org/2000/svg">
<path d="M17.3752 1.63819C16.1004 1.05329 14.7335 0.622358 13.3043 0.375547C13.2782 0.370784 13.2522 0.382688 13.2388 0.406496C13.063 0.719175 12.8683 1.12709 12.7319 1.44771C11.1947 1.21757 9.66532 1.21757 8.1596 1.44771C8.02321 1.11996 7.82141 0.719175 7.64482 0.406496C7.63141 0.383482 7.60541 0.371578 7.57938 0.375547C6.15093 0.62157 4.78397 1.0525 3.50845 1.63819C3.49741 1.64295 3.48794 1.65089 3.48166 1.6612C0.888829 5.53484 0.178544 9.31326 0.526986 13.0448C0.528563 13.0631 0.538811 13.0806 0.553001 13.0917C2.26368 14.3479 3.92076 15.1106 5.54707 15.6161C5.5731 15.6241 5.60067 15.6146 5.61724 15.5931C6.00194 15.0678 6.34487 14.5138 6.6389 13.9313C6.65625 13.8972 6.63969 13.8567 6.60422 13.8432C6.06028 13.6369 5.54234 13.3853 5.04411 13.0996C5.0047 13.0766 5.00155 13.0202 5.0378 12.9932C5.14265 12.9147 5.24752 12.8329 5.34763 12.7504C5.36574 12.7353 5.39098 12.7321 5.41228 12.7417C8.68541 14.236 12.229 14.236 15.4635 12.7417C15.4848 12.7313 15.51 12.7345 15.5289 12.7496C15.629 12.8321 15.7339 12.9147 15.8395 12.9932C15.8758 13.0202 15.8734 13.0766 15.834 13.0996C15.3358 13.3908 14.8178 13.6369 14.2731 13.8424C14.2376 13.8559 14.2219 13.8972 14.2392 13.9313C14.5395 14.513 14.8825 15.067 15.2601 15.5923C15.2759 15.6146 15.3042 15.6241 15.3303 15.6161C16.9645 15.1106 18.6215 14.3479 20.3322 13.0917C20.3472 13.0806 20.3566 13.0639 20.3582 13.0456C20.7752 8.73151 19.6597 4.98408 17.4012 1.66199C17.3957 1.65089 17.3862 1.64295 17.3752 1.63819ZM7.12769 10.7727C6.14225 10.7727 5.33028 9.86799 5.33028 8.75692C5.33028 7.64585 6.12651 6.74115 7.12769 6.74115C8.13673 6.74115 8.94084 7.6538 8.92507 8.75692C8.92507 9.86799 8.12884 10.7727 7.12769 10.7727ZM13.7733 10.7727C12.7879 10.7727 11.9759 9.86799 11.9759 8.75692C11.9759 7.64585 12.7721 6.74115 13.7733 6.74115C14.7824 6.74115 15.5864 7.6538 15.5707 8.75692C15.5707 9.86799 14.7824 10.7727 13.7733 10.7727Z" fill="#D6BB75"/>
</svg>
