<svg width="192" height="21" viewBox="0 0 192 21" fill="none" xmlns="http://www.w3.org/2000/svg">
<path d="M16.9624 6.47638C16.943 7.32806 16.7882 8.05392 16.4978 8.65396C16.2075 9.25401 15.7429 9.8347 15.1042 10.396C15.7429 10.9574 16.2075 11.538 16.4978 12.1381C16.7882 12.7381 16.943 13.464 16.9624 14.3157C16.9624 15.1673 16.7978 15.9706 16.4688 16.7255C16.1591 17.4804 15.7236 18.1385 15.1622 18.6999C14.6009 19.2612 13.9428 19.7064 13.1879 20.0354C12.433 20.3451 11.6297 20.5 10.778 20.5H7.78749H4.5066H0.0353041V0.292054H4.5066H8.86176H10.778C11.6297 0.292054 12.433 0.456583 13.1879 0.78564C13.9428 1.09534 14.6009 1.53086 15.1622 2.09219C15.7236 2.65352 16.1591 3.31163 16.4688 4.06653C16.7978 4.82142 16.9624 5.62471 16.9624 6.47638ZM12.4911 6.47638C12.4911 6.01183 12.3265 5.61503 11.9975 5.28597C11.6684 4.95692 11.2619 4.79239 10.778 4.79239H4.5066V8.16038H10.778C11.2619 8.16038 11.6684 7.99585 11.9975 7.66679C12.3265 7.33774 12.4911 6.94093 12.4911 6.47638ZM12.4911 14.3157C12.4911 13.8511 12.3265 13.464 11.9975 13.1543C11.6684 12.8252 11.2619 12.6607 10.778 12.6607H4.5066V16.0287H10.778C11.2619 16.0287 11.6684 15.8642 11.9975 15.5351C12.3265 15.2061 12.4911 14.7996 12.4911 14.3157ZM37.1427 14.7802L40.772 20.5H35.4587L32.5843 16.0287H28.4324V20.5H23.932V0.292054H28.4324H32.9327C34.0167 0.292054 35.0329 0.504974 35.9813 0.930812C36.9298 1.33729 37.7621 1.89862 38.4783 2.61481C39.1945 3.31163 39.7558 4.14395 40.1623 5.11177C40.5687 6.06022 40.772 7.07643 40.772 8.16038C40.772 9.49596 40.4526 10.7541 39.8139 11.9349C39.1751 13.1156 38.2847 14.064 37.1427 14.7802ZM36.2717 8.16038C36.2717 7.69583 36.1846 7.26031 36.0103 6.85383C35.8361 6.44735 35.5942 6.08926 35.2845 5.77956C34.9941 5.46986 34.6457 5.2279 34.2392 5.0537C33.8328 4.87949 33.3973 4.79239 32.9327 4.79239H28.4324V11.5284H32.9327C33.3973 11.5284 33.8328 11.4413 34.2392 11.2671C34.6457 11.0929 34.9941 10.8509 35.2845 10.5412C35.5942 10.2315 35.8361 9.87341 36.0103 9.46693C36.1846 9.06044 36.2717 8.62493 36.2717 8.16038ZM56.7809 0.292054L68.5108 20.5H63.3136L62.0071 18.2644H51.5547L50.2481 20.5H45.08L56.7809 0.292054ZM59.394 13.764L56.7809 9.26369L54.1678 13.764H59.394ZM89.2768 0.321088V20.5H84.7765V13.7931H78.0405V20.5H73.5401V0.321088H78.0405V9.29272H84.7765V0.321088H89.2768ZM116.681 0.321088V20.5H112.18V12.893L106.577 19.7451L100.944 12.893V20.5H96.4728V0.321088L106.577 12.6607L116.681 0.321088ZM133.603 0.292054L145.333 20.5H140.136L138.829 18.2644H128.377L127.07 20.5H121.902L133.603 0.292054ZM136.216 13.764L133.603 9.26369L130.99 13.764H136.216ZM167.057 0.292054V20.5L154.863 10.0476V20.5H150.362V0.292054L162.586 10.7444V0.292054H167.057ZM180.995 0.292054C182.389 0.292054 183.695 0.563042 184.915 1.10502C186.154 1.62764 187.228 2.34382 188.138 3.25356C189.047 4.16331 189.764 5.23758 190.286 6.47638C190.828 7.69583 191.099 9.00238 191.099 10.396C191.099 11.7897 190.828 13.1059 190.286 14.3447C189.764 15.5642 189.047 16.6287 188.138 17.5385C187.228 18.4482 186.154 19.1741 184.915 19.7161C183.695 20.2387 182.389 20.5 180.995 20.5H174.259V0.292054H180.995ZM186.599 10.396C186.599 9.62178 186.454 8.89592 186.163 8.21845C185.873 7.54098 185.466 6.95061 184.944 6.44735C184.441 5.92473 183.85 5.51825 183.173 5.2279C182.495 4.93756 181.769 4.79239 180.995 4.79239H178.759V16.0287H180.995C181.769 16.0287 182.495 15.8835 183.173 15.5932C183.85 15.2835 184.441 14.877 184.944 14.3737C185.466 13.8705 185.873 13.2801 186.163 12.6026C186.454 11.9058 186.599 11.1703 186.599 10.396Z" fill="#00050D"/>
<path d="M16.9624 6.47638L18.1191 6.50267L18.1194 6.48953V6.47638H16.9624ZM16.4978 8.65396L15.4563 8.14999L15.4563 8.15L16.4978 8.65396ZM15.1042 10.396L14.3404 9.52689L13.3513 10.396L14.3404 11.2652L15.1042 10.396ZM16.4978 12.1381L15.4563 12.6421L15.4563 12.6421L16.4978 12.1381ZM16.9624 14.3157H18.1194V14.3025L18.1191 14.2894L16.9624 14.3157ZM16.4688 16.7255L15.4081 16.2632L15.4031 16.2747L15.3983 16.2864L16.4688 16.7255ZM15.1622 18.6999L15.9804 19.518L15.9804 19.518L15.1622 18.6999ZM13.1879 20.0354L13.6271 21.1059L13.6387 21.1011L13.6502 21.0961L13.1879 20.0354ZM0.0353041 20.5H-1.12175V21.6571H0.0353041V20.5ZM0.0353041 0.292054V-0.865002H-1.12175V0.292054H0.0353041ZM13.1879 0.78564L12.7255 1.84631L12.7371 1.85134L12.7487 1.85611L13.1879 0.78564ZM16.4688 4.06653L15.3983 4.50569L15.4031 4.51734L15.4081 4.52887L16.4688 4.06653ZM11.9975 5.28597L12.8156 4.46781L12.8156 4.46781L11.9975 5.28597ZM4.5066 4.79239V3.63533H3.34955V4.79239H4.5066ZM4.5066 8.16038H3.34955V9.31743H4.5066V8.16038ZM11.9975 7.66679L11.1793 6.84863L11.1793 6.84863L11.9975 7.66679ZM11.9975 13.1543L11.1793 13.9725L11.1917 13.9849L11.2045 13.9969L11.9975 13.1543ZM4.5066 12.6607V11.5037H3.34955V12.6607H4.5066ZM4.5066 16.0287H3.34955V17.1858H4.5066V16.0287ZM11.9975 15.5351L12.8156 16.3533L12.8156 16.3533L11.9975 15.5351ZM15.8056 6.45009C15.789 7.18052 15.6573 7.73446 15.4563 8.14999L17.5393 9.15793C17.919 8.37338 18.097 7.4756 18.1191 6.50267L15.8056 6.45009ZM15.4563 8.15C15.249 8.57839 14.8938 9.04053 14.3404 9.52689L15.8679 11.2652C16.592 10.6289 17.1659 9.92962 17.5393 9.15793L15.4563 8.15ZM14.3404 11.2652C14.8938 11.7515 15.249 12.2137 15.4563 12.6421L17.5393 11.6341C17.1659 10.8624 16.592 10.1632 15.8679 9.52689L14.3404 11.2652ZM15.4563 12.6421C15.6573 13.0576 15.789 13.6115 15.8056 14.342L18.1191 14.2894C18.097 13.3165 17.919 12.4187 17.5393 11.6341L15.4563 12.6421ZM15.8053 14.3157C15.8053 15.0138 15.6714 15.6592 15.4081 16.2632L17.5294 17.1879C17.9243 16.2821 18.1194 15.3209 18.1194 14.3157H15.8053ZM15.3983 16.2864C15.1451 16.9035 14.794 17.4318 14.3441 17.8817L15.9804 19.518C16.6531 18.8453 17.173 18.0573 17.5392 17.1647L15.3983 16.2864ZM14.3441 17.8817C13.8889 18.3368 13.3527 18.7014 12.7255 18.9748L13.6502 21.0961C14.5328 20.7114 15.3129 20.1856 15.9804 19.518L14.3441 17.8817ZM12.7487 18.965C12.1393 19.215 11.4858 19.3429 10.778 19.3429V21.6571C11.7736 21.6571 12.7267 21.4753 13.6271 21.1059L12.7487 18.965ZM10.778 19.3429H7.78749V21.6571H10.778V19.3429ZM7.78749 19.3429H4.5066V21.6571H7.78749V19.3429ZM4.5066 19.3429H0.0353041V21.6571H4.5066V19.3429ZM1.19236 20.5V0.292054H-1.12175V20.5H1.19236ZM0.0353041 1.44911H4.5066V-0.865002H0.0353041V1.44911ZM4.5066 1.44911H8.86176V-0.865002H4.5066V1.44911ZM8.86176 1.44911H10.778V-0.865002H8.86176V1.44911ZM10.778 1.44911C11.4762 1.44911 12.1215 1.58302 12.7255 1.84631L13.6502 -0.275029C12.7445 -0.669851 11.7832 -0.865002 10.778 -0.865002V1.44911ZM12.7487 1.85611C13.3659 2.1093 13.8942 2.46044 14.3441 2.91035L15.9804 1.27403C15.3076 0.601274 14.5197 0.0813824 13.6271 -0.284832L12.7487 1.85611ZM14.3441 2.91035C14.794 3.36026 15.1451 3.88856 15.3983 4.50569L17.5392 3.62736C17.173 2.73471 16.6531 1.94678 15.9804 1.27403L14.3441 2.91035ZM15.4081 4.52887C15.6714 5.13289 15.8053 5.77824 15.8053 6.47638H18.1194C18.1194 5.47118 17.9243 4.50995 17.5294 3.60418L15.4081 4.52887ZM13.6481 6.47638C13.6481 5.70436 13.3613 5.01343 12.8156 4.46781L11.1793 6.10413C11.2918 6.21662 11.334 6.3193 11.334 6.47638H13.6481ZM12.8156 4.46781C12.2601 3.9123 11.5552 3.63533 10.778 3.63533V5.94944C10.9687 5.94944 11.0767 6.00153 11.1793 6.10414L12.8156 4.46781ZM10.778 3.63533H4.5066V5.94944H10.778V3.63533ZM3.34955 4.79239V8.16038H5.66366V4.79239H3.34955ZM4.5066 9.31743H10.778V7.00332H4.5066V9.31743ZM10.778 9.31743C11.5552 9.31743 12.2601 9.04047 12.8156 8.48496L11.1793 6.84863C11.0767 6.95123 10.9687 7.00332 10.778 7.00332V9.31743ZM12.8156 8.48496C13.3613 7.93933 13.6481 7.2484 13.6481 6.47638H11.334C11.334 6.63346 11.2918 6.73614 11.1793 6.84863L12.8156 8.48496ZM13.6481 14.3157C13.6481 13.5422 13.3591 12.8469 12.7905 12.3117L11.2045 13.9969C11.2939 14.0811 11.334 14.16 11.334 14.3157H13.6481ZM12.8156 12.3361C12.2601 11.7806 11.5552 11.5037 10.778 11.5037V13.8178C10.9687 13.8178 11.0767 13.8699 11.1793 13.9725L12.8156 12.3361ZM10.778 11.5037H4.5066V13.8178H10.778V11.5037ZM3.34955 12.6607V16.0287H5.66366V12.6607H3.34955ZM4.5066 17.1858H10.778V14.8716H4.5066V17.1858ZM10.778 17.1858C11.5552 17.1858 12.2601 16.9088 12.8156 16.3533L11.1793 14.717C11.0767 14.8196 10.9687 14.8716 10.778 14.8716V17.1858ZM12.8156 16.3533C13.3712 15.7978 13.6481 15.0928 13.6481 14.3157H11.334C11.334 14.5064 11.2819 14.6144 11.1793 14.717L12.8156 16.3533ZM37.1427 14.7802L36.528 13.8L35.5425 14.418L36.1657 15.4001L37.1427 14.7802ZM40.772 20.5V21.6571H42.8765L41.749 19.8801L40.772 20.5ZM35.4587 20.5L34.4854 21.1257L34.827 21.6571H35.4587V20.5ZM32.5843 16.0287L33.5576 15.403L33.216 14.8716H32.5843V16.0287ZM28.4324 16.0287V14.8716H27.2753V16.0287H28.4324ZM28.4324 20.5V21.6571H29.5894V20.5H28.4324ZM23.932 20.5H22.775V21.6571H23.932V20.5ZM23.932 0.292054V-0.865002H22.775V0.292054H23.932ZM35.9813 0.930812L35.5074 1.98636L35.5164 1.99041L35.5255 1.99431L35.9813 0.930812ZM38.4783 2.61481L37.6601 3.43297L37.6657 3.43857L37.6714 3.4441L38.4783 2.61481ZM40.1623 5.11177L39.0955 5.55983L39.0988 5.56755L40.1623 5.11177ZM39.8139 11.9349L38.7962 11.3843L38.7962 11.3843L39.8139 11.9349ZM36.0103 6.85383L34.9468 7.30962L34.9468 7.30962L36.0103 6.85383ZM35.2845 5.77956L34.4404 6.57092L34.4531 6.58453L34.4663 6.59772L35.2845 5.77956ZM28.4324 4.79239V3.63533H27.2753V4.79239H28.4324ZM28.4324 11.5284H27.2753V12.6854H28.4324V11.5284ZM35.2845 10.5412L34.4663 9.72304L34.4531 9.73623L34.4404 9.74984L35.2845 10.5412ZM36.0103 9.46693L34.9468 9.01114L34.9468 9.01114L36.0103 9.46693ZM36.1657 15.4001L39.795 21.1199L41.749 19.8801L38.1197 14.1603L36.1657 15.4001ZM40.772 19.3429H35.4587V21.6571H40.772V19.3429ZM36.432 19.8743L33.5576 15.403L31.611 16.6544L34.4854 21.1257L36.432 19.8743ZM32.5843 14.8716H28.4324V17.1858H32.5843V14.8716ZM27.2753 16.0287V20.5H29.5894V16.0287H27.2753ZM28.4324 19.3429H23.932V21.6571H28.4324V19.3429ZM25.0891 20.5V0.292054H22.775V20.5H25.0891ZM23.932 1.44911H28.4324V-0.865002H23.932V1.44911ZM28.4324 1.44911H32.9327V-0.865002H28.4324V1.44911ZM32.9327 1.44911C33.8604 1.44911 34.7143 1.63029 35.5074 1.98636L36.4552 -0.124735C35.3514 -0.620344 34.1729 -0.865002 32.9327 -0.865002V1.44911ZM35.5255 1.99431C36.3413 2.34393 37.05 2.82286 37.6601 3.43297L39.2964 1.79664C38.4742 0.974391 37.5183 0.330659 36.4371 -0.132691L35.5255 1.99431ZM37.6714 3.4441C38.2706 4.02715 38.7461 4.72788 39.0955 5.55982L41.2291 4.66372C40.7655 3.56002 40.1183 2.59612 39.2851 1.78551L37.6714 3.4441ZM39.0988 5.56755C39.4404 6.36476 39.6149 7.22507 39.6149 8.16038H41.929C41.929 6.92778 41.6971 5.75568 41.2258 4.65598L39.0988 5.56755ZM39.6149 8.16038C39.6149 9.30269 39.3439 10.3717 38.7962 11.3843L40.8315 12.4854C41.5613 11.1365 41.929 9.68924 41.929 8.16038H39.6149ZM38.7962 11.3843C38.2528 12.3887 37.5016 13.1894 36.528 13.8L37.7574 15.7605C39.0678 14.9387 40.0974 13.8425 40.8315 12.4854L38.7962 11.3843ZM37.4287 8.16038C37.4287 7.54718 37.3129 6.95577 37.0738 6.39804L34.9468 7.30962C35.0562 7.56485 35.1146 7.84447 35.1146 8.16038H37.4287ZM37.0738 6.39804C36.8422 5.85761 36.5175 5.37621 36.1026 4.96139L34.4663 6.59772C34.6709 6.8023 34.83 7.03708 34.9468 7.30962L37.0738 6.39804ZM36.1286 4.9882C35.7244 4.55707 35.2421 4.22465 34.695 3.9902L33.7835 6.1172C34.0494 6.23116 34.2639 6.38264 34.4404 6.57092L36.1286 4.9882ZM34.695 3.9902C34.1373 3.75117 33.5459 3.63533 32.9327 3.63533V5.94944C33.2486 5.94944 33.5282 6.00781 33.7835 6.1172L34.695 3.9902ZM32.9327 3.63533H28.4324V5.94944H32.9327V3.63533ZM27.2753 4.79239V11.5284H29.5894V4.79239H27.2753ZM28.4324 12.6854H32.9327V10.3713H28.4324V12.6854ZM32.9327 12.6854C33.5459 12.6854 34.1373 12.5696 34.695 12.3306L33.7835 10.2036C33.5282 10.3129 33.2486 10.3713 32.9327 10.3713V12.6854ZM34.695 12.3306C35.2421 12.0961 35.7244 11.7637 36.1286 11.3326L34.4404 9.74984C34.2639 9.93812 34.0494 10.0896 33.7835 10.2036L34.695 12.3306ZM36.1026 11.3594C36.5175 10.9445 36.8422 10.4631 37.0738 9.92271L34.9468 9.01114C34.83 9.28367 34.6709 9.51845 34.4663 9.72304L36.1026 11.3594ZM37.0738 9.92271C37.3129 9.36499 37.4287 8.77357 37.4287 8.16038H35.1146C35.1146 8.47628 35.0562 8.7559 34.9468 9.01114L37.0738 9.92271ZM56.7809 0.292054L57.7816 -0.288806L56.7796 -2.0149L55.7796 -0.287729L56.7809 0.292054ZM68.5108 20.5V21.6571H70.5203L69.5115 19.9191L68.5108 20.5ZM63.3136 20.5L62.3147 21.0838L62.6497 21.6571H63.3136V20.5ZM62.0071 18.2644L63.0061 17.6805L62.671 17.1073H62.0071V18.2644ZM51.5547 18.2644V17.1073H50.8907L50.5557 17.6805L51.5547 18.2644ZM50.2481 20.5V21.6571H50.9121L51.2471 21.0838L50.2481 20.5ZM45.08 20.5L44.0787 19.9202L43.073 21.6571H45.08V20.5ZM59.394 13.764V14.9211H61.4038L60.3946 13.183L59.394 13.764ZM56.7809 9.26369L57.7815 8.68269L56.7809 6.95941L55.7803 8.68269L56.7809 9.26369ZM54.1678 13.764L53.1672 13.183L52.158 14.9211H54.1678V13.764ZM55.7802 0.872915L67.5101 21.0809L69.5115 19.9191L57.7816 -0.288806L55.7802 0.872915ZM68.5108 19.3429H63.3136V21.6571H68.5108V19.3429ZM64.3126 19.9162L63.0061 17.6805L61.0081 18.8482L62.3147 21.0838L64.3126 19.9162ZM62.0071 17.1073H51.5547V19.4214H62.0071V17.1073ZM50.5557 17.6805L49.2492 19.9162L51.2471 21.0838L52.5537 18.8482L50.5557 17.6805ZM50.2481 19.3429H45.08V21.6571H50.2481V19.3429ZM46.0813 21.0798L57.7822 0.871838L55.7796 -0.287729L44.0787 19.9202L46.0813 21.0798ZM60.3946 13.183L57.7815 8.68269L55.7803 9.84468L58.3934 14.345L60.3946 13.183ZM55.7803 8.68269L53.1672 13.183L55.1684 14.345L57.7815 9.84468L55.7803 8.68269ZM54.1678 14.9211H59.394V12.607H54.1678V14.9211ZM89.2768 0.321088H90.4339V-0.835968H89.2768V0.321088ZM89.2768 20.5V21.6571H90.4339V20.5H89.2768ZM84.7765 20.5H83.6194V21.6571H84.7765V20.5ZM84.7765 13.7931H85.9335V12.636H84.7765V13.7931ZM78.0405 13.7931V12.636H76.8834V13.7931H78.0405ZM78.0405 20.5V21.6571H79.1975V20.5H78.0405ZM73.5401 20.5H72.3831V21.6571H73.5401V20.5ZM73.5401 0.321088V-0.835968H72.3831V0.321088H73.5401ZM78.0405 0.321088H79.1975V-0.835968H78.0405V0.321088ZM78.0405 9.29272H76.8834V10.4498H78.0405V9.29272ZM84.7765 9.29272V10.4498H85.9335V9.29272H84.7765ZM84.7765 0.321088V-0.835968H83.6194V0.321088H84.7765ZM88.1197 0.321088V20.5H90.4339V0.321088H88.1197ZM89.2768 19.3429H84.7765V21.6571H89.2768V19.3429ZM85.9335 20.5V13.7931H83.6194V20.5H85.9335ZM84.7765 12.636H78.0405V14.9501H84.7765V12.636ZM76.8834 13.7931V20.5H79.1975V13.7931H76.8834ZM78.0405 19.3429H73.5401V21.6571H78.0405V19.3429ZM74.6972 20.5V0.321088H72.3831V20.5H74.6972ZM73.5401 1.47814H78.0405V-0.835968H73.5401V1.47814ZM76.8834 0.321088V9.29272H79.1975V0.321088H76.8834ZM78.0405 10.4498H84.7765V8.13566H78.0405V10.4498ZM85.9335 9.29272V0.321088H83.6194V9.29272H85.9335ZM84.7765 1.47814H89.2768V-0.835968H84.7765V1.47814ZM116.681 0.321088H117.838V-2.91833L115.786 -0.411947L116.681 0.321088ZM116.681 20.5V21.6571H117.838V20.5H116.681ZM112.18 20.5H111.023V21.6571H112.18V20.5ZM112.18 12.893H113.338V9.65042L111.285 12.1605L112.18 12.893ZM106.577 19.7451L105.683 20.4799L106.579 21.57L107.473 20.4776L106.577 19.7451ZM100.944 12.893L101.838 12.1582L99.7871 9.66335V12.893H100.944ZM100.944 20.5V21.6571H102.101V20.5H100.944ZM96.4728 20.5H95.3158V21.6571H96.4728V20.5ZM96.4728 0.321088L97.3681 -0.411947L95.3158 -2.91833V0.321088H96.4728ZM106.577 12.6607L105.682 13.3937L106.577 14.4871L107.472 13.3937L106.577 12.6607ZM115.524 0.321088V20.5H117.838V0.321088H115.524ZM116.681 19.3429H112.18V21.6571H116.681V19.3429ZM113.338 20.5V12.893H111.023V20.5H113.338ZM111.285 12.1605L105.681 19.0126L107.473 20.4776L113.076 13.6255L111.285 12.1605ZM107.471 19.0104L101.838 12.1582L100.05 13.6277L105.683 20.4799L107.471 19.0104ZM99.7871 12.893V20.5H102.101V12.893H99.7871ZM100.944 19.3429H96.4728V21.6571H100.944V19.3429ZM97.6299 20.5V0.321088H95.3158V20.5H97.6299ZM95.5776 1.05412L105.682 13.3937L107.472 11.9277L97.3681 -0.411947L95.5776 1.05412ZM107.472 13.3937L117.576 1.05412L115.786 -0.411947L105.682 11.9277L107.472 13.3937ZM133.603 0.292054L134.604 -0.288806L133.602 -2.0149L132.602 -0.287729L133.603 0.292054ZM145.333 20.5V21.6571H147.343L146.334 19.9191L145.333 20.5ZM140.136 20.5L139.137 21.0838L139.472 21.6571H140.136V20.5ZM138.829 18.2644L139.828 17.6805L139.493 17.1073H138.829V18.2644ZM128.377 18.2644V17.1073H127.713L127.378 17.6805L128.377 18.2644ZM127.07 20.5V21.6571H127.734L128.069 21.0838L127.07 20.5ZM121.902 20.5L120.901 19.9202L119.895 21.6571H121.902V20.5ZM136.216 13.764V14.9211H138.226L137.217 13.183L136.216 13.764ZM133.603 9.26369L134.604 8.68269L133.603 6.95941L132.603 8.68269L133.603 9.26369ZM130.99 13.764L129.989 13.183L128.98 14.9211H130.99V13.764ZM132.602 0.872915L144.332 21.0809L146.334 19.9191L134.604 -0.288806L132.602 0.872915ZM145.333 19.3429H140.136V21.6571H145.333V19.3429ZM141.135 19.9162L139.828 17.6805L137.83 18.8482L139.137 21.0838L141.135 19.9162ZM138.829 17.1073H128.377V19.4214H138.829V17.1073ZM127.378 17.6805L126.071 19.9162L128.069 21.0838L129.376 18.8482L127.378 17.6805ZM127.07 19.3429H121.902V21.6571H127.07V19.3429ZM122.904 21.0798L134.604 0.871838L132.602 -0.287729L120.901 19.9202L122.904 21.0798ZM137.217 13.183L134.604 8.68269L132.603 9.84468L135.216 14.345L137.217 13.183ZM132.603 8.68269L129.989 13.183L131.991 14.345L134.604 9.84468L132.603 8.68269ZM130.99 14.9211H136.216V12.607H130.99V14.9211ZM167.057 0.292054H168.214V-0.865002H167.057V0.292054ZM167.057 20.5L166.304 21.3785L168.214 23.0157V20.5H167.057ZM154.863 10.0476L155.616 9.16911L153.706 7.53192V10.0476H154.863ZM154.863 20.5V21.6571H156.02V20.5H154.863ZM150.362 20.5H149.205V21.6571H150.362V20.5ZM150.362 0.292054L151.114 -0.587332L149.205 -2.21975V0.292054H150.362ZM162.586 10.7444L161.834 11.6238L163.743 13.2562V10.7444H162.586ZM162.586 0.292054V-0.865002H161.429V0.292054H162.586ZM165.9 0.292054V20.5H168.214V0.292054H165.9ZM167.81 19.6215L155.616 9.16911L154.11 10.9261L166.304 21.3785L167.81 19.6215ZM153.706 10.0476V20.5H156.02V10.0476H153.706ZM154.863 19.3429H150.362V21.6571H154.863V19.3429ZM151.519 20.5V0.292054H149.205V20.5H151.519ZM149.61 1.17144L161.834 11.6238L163.338 9.86505L151.114 -0.587332L149.61 1.17144ZM163.743 10.7444V0.292054H161.429V10.7444H163.743ZM162.586 1.44911H167.057V-0.865002H162.586V1.44911ZM184.915 1.10502L184.445 2.16235L184.455 2.16681L184.465 2.17109L184.915 1.10502ZM190.286 6.47638L189.22 6.92613L189.224 6.93626L189.229 6.94631L190.286 6.47638ZM190.286 14.3447L189.226 13.8809L189.223 13.8889L190.286 14.3447ZM188.138 17.5385L187.319 16.7203L187.319 16.7203L188.138 17.5385ZM184.915 19.7161L185.371 20.7796L185.379 20.7761L184.915 19.7161ZM174.259 20.5H173.102V21.6571H174.259V20.5ZM174.259 0.292054V-0.865002H173.102V0.292054H174.259ZM186.163 8.21845L185.1 8.67423L185.1 8.67423L186.163 8.21845ZM184.944 6.44735L184.11 7.24993L184.125 7.26566L184.141 7.2808L184.944 6.44735ZM178.759 4.79239V3.63533H177.602V4.79239H178.759ZM178.759 16.0287H177.602V17.1858H178.759V16.0287ZM183.173 15.5932L183.628 16.6567L183.641 16.6512L183.654 16.6455L183.173 15.5932ZM184.944 14.3737L184.141 13.5403L184.133 13.5479L184.126 13.5556L184.944 14.3737ZM186.163 12.6026L187.227 13.0585L187.231 13.0477L186.163 12.6026ZM180.995 1.44911C182.234 1.44911 183.38 1.68904 184.445 2.16235L185.385 0.0476862C184.011 -0.562958 182.543 -0.865002 180.995 -0.865002V1.44911ZM184.465 2.17109C185.572 2.63829 186.52 3.27236 187.319 4.07173L188.956 2.4354C187.936 1.41528 186.735 0.616981 185.365 0.0389475L184.465 2.17109ZM187.319 4.07173C188.119 4.87109 188.753 5.81868 189.22 6.92613L191.352 6.02663C190.774 4.65648 189.976 3.45553 188.956 2.4354L187.319 4.07173ZM189.229 6.94631C189.702 8.01125 189.942 9.15693 189.942 10.396H192.256C192.256 8.84782 191.954 7.38041 191.343 6.00646L189.229 6.94631ZM189.942 10.396C189.942 11.6351 189.702 12.7929 189.226 13.8809L191.346 14.8085C191.954 13.4189 192.256 11.9443 192.256 10.396H189.942ZM189.223 13.8889C188.756 14.9774 188.122 15.9179 187.319 16.7203L188.956 18.3567C189.973 17.3396 190.771 16.1509 191.35 14.8005L189.223 13.8889ZM187.319 16.7203C186.517 17.5229 185.564 18.1689 184.451 18.656L185.379 20.7761C186.743 20.1793 187.939 19.3736 188.956 18.3567L187.319 16.7203ZM184.459 18.6526C183.391 19.1104 182.24 19.3429 180.995 19.3429V21.6571C182.537 21.6571 184 21.367 185.371 20.7796L184.459 18.6526ZM180.995 19.3429H174.259V21.6571H180.995V19.3429ZM175.416 20.5V0.292054H173.102V20.5H175.416ZM174.259 1.44911H180.995V-0.865002H174.259V1.44911ZM187.756 10.396C187.756 9.47313 187.582 8.59138 187.227 7.76266L185.1 8.67423C185.325 9.20046 185.442 9.77042 185.442 10.396H187.756ZM187.227 7.76266C186.877 6.94546 186.382 6.22609 185.746 5.6139L184.141 7.2808C184.551 7.67513 184.869 8.1365 185.1 8.67423L187.227 7.76266ZM185.777 5.64477C185.165 5.00902 184.446 4.51463 183.628 4.1644L182.717 6.29141C183.255 6.52186 183.716 6.84044 184.11 7.24993L185.777 5.64477ZM183.628 4.1644C182.8 3.80924 181.918 3.63533 180.995 3.63533V5.94944C181.621 5.94944 182.191 6.06588 182.717 6.29141L183.628 4.1644ZM180.995 3.63533H178.759V5.94944H180.995V3.63533ZM177.602 4.79239V16.0287H179.917V4.79239H177.602ZM178.759 17.1858H180.995V14.8716H178.759V17.1858ZM180.995 17.1858C181.918 17.1858 182.8 17.0119 183.628 16.6567L182.717 14.5297C182.191 14.7552 181.621 14.8716 180.995 14.8716V17.1858ZM183.654 16.6455C184.451 16.2812 185.157 15.7972 185.762 15.1919L184.126 13.5556C183.724 13.9568 183.25 14.2858 182.692 14.5409L183.654 16.6455ZM185.746 15.2072C186.382 14.595 186.877 13.8756 187.227 13.0584L185.1 12.1469C184.869 12.6846 184.551 13.146 184.141 13.5403L185.746 15.2072ZM187.231 13.0477C187.582 12.2062 187.756 11.319 187.756 10.396H185.442C185.442 11.0215 185.325 11.6055 185.095 12.1576L187.231 13.0477Z" fill="url(#paint0_linear_365_3122)"/>
<defs>
<linearGradient id="paint0_linear_365_3122" x1="94.9745" y1="-3.5" x2="94.9745" y2="30.5" gradientUnits="userSpaceOnUse">
<stop offset="0.21875" stop-color="#D6BB75"/>
<stop offset="0.791667" stop-color="#897031"/>
</linearGradient>
</defs>
</svg>
