<svg width="78" height="5" viewBox="0 0 78 5" fill="none" xmlns="http://www.w3.org/2000/svg">
<path d="M0.188538 2.23987C0.188538 3.34444 1.08397 4.23987 2.18854 4.23987C3.29311 4.23987 4.18854 3.34444 4.18854 2.23987C4.18854 1.1353 3.29311 0.239868 2.18854 0.239868C1.08397 0.239868 0.188538 1.1353 0.188538 2.23987ZM73.8114 2.23987C73.8114 3.34444 74.7068 4.23987 75.8114 4.23987C76.916 4.23987 77.8114 3.34444 77.8114 2.23987C77.8114 1.1353 76.916 0.239868 75.8114 0.239868C74.7068 0.239868 73.8114 1.1353 73.8114 2.23987ZM2.18854 2.61487H75.8114V1.86487H2.18854V2.61487Z" fill="url(#paint0_linear_330_5433)"/>
<defs>
<linearGradient id="paint0_linear_330_5433" x1="39" y1="2.23987" x2="39" y2="3.23987" gradientUnits="userSpaceOnUse">
<stop offset="0.21875" stop-color="#D6BB75"/>
<stop offset="0.791667" stop-color="#897031"/>
</linearGradient>
</defs>
</svg>
