<svg width="21" height="17" viewBox="0 0 21 17" fill="none" xmlns="http://www.w3.org/2000/svg">
<path d="M18.3968 4.42023C18.409 4.59654 18.409 4.77286 18.409 4.9508C18.409 10.3727 14.2814 16.6258 6.734 16.6258V16.6225C4.50446 16.6258 2.32124 15.9872 0.444336 14.783C0.768529 14.822 1.09435 14.8415 1.42098 14.8423C3.26863 14.8439 5.06347 14.224 6.51706 13.0824C4.76122 13.0491 3.2215 11.9043 2.68362 10.2329C3.29869 10.3516 3.93245 10.3272 4.53615 10.1623C2.62187 9.7755 1.24466 8.0936 1.24466 6.14031C1.24466 6.12244 1.24466 6.10538 1.24466 6.08831C1.81504 6.40601 2.45368 6.58232 3.10694 6.60182C1.30397 5.39687 0.748216 2.99833 1.83698 1.12305C3.92027 3.68653 6.994 5.24493 10.2936 5.40987C9.96292 3.98472 10.4147 2.49132 11.4807 1.48949C13.1333 -0.0640319 15.7326 0.0155944 17.2861 1.66743C18.2051 1.48624 19.0858 1.14905 19.8918 0.671292C19.5855 1.62112 18.9444 2.42794 18.088 2.94064C18.9014 2.84476 19.696 2.62701 20.4443 2.29469C19.8935 3.12021 19.1996 3.83928 18.3968 4.42023Z" fill="#D6BB75"/>
</svg>
