<svg width="138" height="37" viewBox="0 0 138 37" fill="none" xmlns="http://www.w3.org/2000/svg">
<path d="M1.27246 35.8245V1.17529H117.042L136.201 16.6655V35.8245H1.27246Z" stroke="url(#paint0_linear_402_4357)" stroke-width="2"/>
<path d="M28.8208 23.4998V14.4529H30.7192C31.6294 14.4529 32.3481 14.5427 32.8755 14.7224C33.4419 14.8982 33.9556 15.197 34.4165 15.6189C35.3501 16.4705 35.8169 17.5896 35.8169 18.9763C35.8169 20.3669 35.3306 21.4919 34.3579 22.3513C33.8696 22.781 33.3579 23.0798 32.8228 23.2478C32.3228 23.4158 31.6138 23.4998 30.6958 23.4998H28.8208ZM30.186 22.2166H30.8013C31.4146 22.2166 31.9243 22.1521 32.3306 22.0232C32.7368 21.8865 33.104 21.6697 33.4321 21.3728C34.104 20.7595 34.4399 19.9607 34.4399 18.9763C34.4399 17.9841 34.1079 17.1794 33.4438 16.5623C32.8462 16.0115 31.9653 15.7361 30.8013 15.7361H30.186V22.2166ZM37.0181 20.6052C37.0181 19.781 37.313 19.0798 37.9028 18.5017C38.4927 17.9236 39.2114 17.6345 40.0591 17.6345C40.9106 17.6345 41.6333 17.9255 42.2271 18.5076C42.813 19.0896 43.106 19.8044 43.106 20.6521C43.106 21.5076 42.811 22.2244 42.2212 22.8025C41.6274 23.3767 40.8989 23.6638 40.0356 23.6638C39.1802 23.6638 38.4634 23.3708 37.8853 22.7849C37.3071 22.2068 37.0181 21.4802 37.0181 20.6052ZM38.3657 20.6287C38.3657 21.199 38.5181 21.6501 38.8228 21.9822C39.1353 22.3181 39.5474 22.4861 40.0591 22.4861C40.5747 22.4861 40.9868 22.3201 41.2954 21.988C41.604 21.656 41.7583 21.2126 41.7583 20.658C41.7583 20.1033 41.604 19.6599 41.2954 19.3279C40.9829 18.9919 40.5708 18.824 40.0591 18.824C39.5552 18.824 39.147 18.9919 38.8345 19.3279C38.522 19.6638 38.3657 20.0974 38.3657 20.6287ZM44.9868 17.7927L46.481 21.0505L48.0923 17.2712L49.7153 21.0505L51.1919 17.7927H52.6685L49.6802 23.9275L48.0923 20.2537L46.4868 23.9275L43.5044 17.7927H44.9868ZM53.5649 17.7927H54.8892V18.3201C55.3501 17.863 55.8696 17.6345 56.4478 17.6345C57.1118 17.6345 57.6294 17.8435 58.0005 18.2615C58.3208 18.6169 58.481 19.197 58.481 20.0017V23.4998H57.1567V20.3123C57.1567 19.7498 57.0786 19.3611 56.9224 19.1462C56.77 18.9275 56.4927 18.8181 56.0903 18.8181C55.6528 18.8181 55.3423 18.9626 55.1587 19.2517C54.979 19.5369 54.8892 20.0349 54.8892 20.7458V23.4998H53.5649V17.7927ZM61.4692 13.6033V23.4998H60.1509V13.6033H61.4692ZM62.8696 20.6052C62.8696 19.781 63.1646 19.0798 63.7544 18.5017C64.3442 17.9236 65.063 17.6345 65.9106 17.6345C66.7622 17.6345 67.4849 17.9255 68.0786 18.5076C68.6646 19.0896 68.9575 19.8044 68.9575 20.6521C68.9575 21.5076 68.6626 22.2244 68.0728 22.8025C67.479 23.3767 66.7505 23.6638 65.8872 23.6638C65.0317 23.6638 64.3149 23.3708 63.7368 22.7849C63.1587 22.2068 62.8696 21.4802 62.8696 20.6052ZM64.2173 20.6287C64.2173 21.199 64.3696 21.6501 64.6743 21.9822C64.9868 22.3181 65.3989 22.4861 65.9106 22.4861C66.4263 22.4861 66.8384 22.3201 67.147 21.988C67.4556 21.656 67.6099 21.2126 67.6099 20.658C67.6099 20.1033 67.4556 19.6599 67.147 19.3279C66.8345 18.9919 66.4224 18.824 65.9106 18.824C65.4067 18.824 64.9985 18.9919 64.686 19.3279C64.3735 19.6638 64.2173 20.0974 64.2173 20.6287ZM74.5649 17.7927H75.8892V23.4998H74.5649V22.9021C74.022 23.4099 73.438 23.6638 72.813 23.6638C72.0239 23.6638 71.3716 23.3787 70.856 22.8083C70.3442 22.2263 70.0884 21.4998 70.0884 20.6287C70.0884 19.7732 70.3442 19.0603 70.856 18.49C71.3677 17.9197 72.0083 17.6345 72.7778 17.6345C73.4419 17.6345 74.0376 17.908 74.5649 18.4548V17.7927ZM71.436 20.6287C71.436 21.1755 71.5825 21.6208 71.8755 21.9646C72.1763 22.3123 72.5552 22.4861 73.0122 22.4861C73.5005 22.4861 73.895 22.3181 74.1958 21.9822C74.4966 21.6345 74.647 21.1931 74.647 20.658C74.647 20.1228 74.4966 19.6814 74.1958 19.3337C73.895 18.9939 73.5044 18.824 73.0239 18.824C72.5708 18.824 72.1919 18.9958 71.8872 19.3396C71.5864 19.6873 71.436 20.1169 71.436 20.6287ZM81.7603 13.6033H83.0845V23.4998H81.7603V22.9021C81.2407 23.4099 80.6528 23.6638 79.9966 23.6638C79.2153 23.6638 78.5669 23.3787 78.0513 22.8083C77.5396 22.2263 77.2837 21.4998 77.2837 20.6287C77.2837 19.7771 77.5396 19.0662 78.0513 18.4958C78.5591 17.9216 79.1978 17.6345 79.9673 17.6345C80.6353 17.6345 81.2329 17.908 81.7603 18.4548V13.6033ZM78.6313 20.6287C78.6313 21.1755 78.7778 21.6208 79.0708 21.9646C79.3716 22.3123 79.7505 22.4861 80.2075 22.4861C80.6958 22.4861 81.0903 22.3181 81.3911 21.9822C81.6919 21.6345 81.8423 21.1931 81.8423 20.658C81.8423 20.1228 81.6919 19.6814 81.3911 19.3337C81.0903 18.9939 80.6997 18.824 80.2192 18.824C79.7661 18.824 79.3872 18.9958 79.0825 19.3396C78.7817 19.6873 78.6313 20.1169 78.6313 20.6287ZM90.0688 19.8259V23.4998H88.7036V14.4529H90.2505C91.0083 14.4529 91.5806 14.5056 91.9673 14.6111C92.3579 14.7166 92.7017 14.9158 92.9985 15.2087C93.5181 15.7166 93.7778 16.3572 93.7778 17.1306C93.7778 17.9587 93.5005 18.615 92.9458 19.0994C92.3911 19.5837 91.6431 19.8259 90.7017 19.8259H90.0688ZM90.0688 18.5603H90.5786C91.8325 18.5603 92.4595 18.0779 92.4595 17.113C92.4595 16.1794 91.813 15.7126 90.52 15.7126H90.0688V18.5603ZM95.1841 23.4998V14.4529H97.0825C97.9927 14.4529 98.7114 14.5427 99.2388 14.7224C99.8052 14.8982 100.319 15.197 100.78 15.6189C101.713 16.4705 102.18 17.5896 102.18 18.9763C102.18 20.3669 101.694 21.4919 100.721 22.3513C100.233 22.781 99.7212 23.0798 99.186 23.2478C98.686 23.4158 97.9771 23.4998 97.0591 23.4998H95.1841ZM96.5493 22.2166H97.1646C97.7778 22.2166 98.2876 22.1521 98.6938 22.0232C99.1001 21.8865 99.4673 21.6697 99.7954 21.3728C100.467 20.7595 100.803 19.9607 100.803 18.9763C100.803 17.9841 100.471 17.1794 99.8071 16.5623C99.2095 16.0115 98.3286 15.7361 97.1646 15.7361H96.5493V22.2166ZM108.42 15.7361H105.268V17.9099H108.309V19.1931H105.268V23.4998H103.903V14.4529H108.42V15.7361Z" fill="white" fill-opacity="0.8"/>
<defs>
<linearGradient id="paint0_linear_402_4357" x1="68.7368" y1="1.17529" x2="68.7368" y2="35.8245" gradientUnits="userSpaceOnUse">
<stop offset="0.21875" stop-color="#C1B072"/>
<stop offset="0.791667" stop-color="#897031"/>
</linearGradient>
</defs>
</svg>
